<?xml version="1.0" standalone="no"?>
<!DOCTYPE svg PUBLIC "-//W3C//DTD SVG 20010904//EN"
 "http://www.w3.org/TR/2001/REC-SVG-20010904/DTD/svg10.dtd">
<svg version="1.0" xmlns="http://www.w3.org/2000/svg"
 width="1157.000000pt" height="1157.000000pt" viewBox="0 0 1157.000000 1157.000000"
 preserveAspectRatio="xMidYMid meet">
<metadata>
Created by potrace 1.14, written by Peter Selinger 2001-2017
</metadata>
<g transform="translate(0.000000,1157.000000) scale(0.100000,-0.100000)"
fill="#000000" stroke="none">
<path d="M2979 10265 c-2 -2 -40 -6 -84 -9 -44 -4 -91 -8 -105 -11 -14 -3 -34
-7 -45 -9 -11 -2 -40 -9 -65 -16 -25 -7 -53 -14 -62 -15 -10 -2 -22 -6 -26 -9
-5 -3 -19 -7 -33 -10 -68 -12 -315 -109 -459 -179 -47 -23 -88 -41 -92 -40 -3
1 -12 -4 -18 -12 -7 -8 -16 -15 -20 -15 -9 0 -199 -115 -270 -163 -89 -60
-157 -121 -320 -281 -168 -166 -275 -293 -395 -471 -37 -55 -78 -111 -91 -126
-13 -14 -24 -30 -24 -37 0 -6 -34 -70 -75 -143 -204 -354 -309 -611 -396 -972
-15 -60 -77 -406 -84 -467 -3 -30 -10 -80 -15 -110 -5 -30 -12 -86 -15 -125
-4 -38 -10 -97 -15 -130 -8 -62 -5 -445 5 -570 10 -130 25 -280 31 -307 3 -14
1 -29 -4 -32 -11 -7 -3 -56 9 -56 5 0 9 -12 9 -27 1 -71 44 -308 90 -498 59
-238 112 -411 176 -567 24 -59 44 -112 44 -117 0 -24 80 -194 130 -276 163
-272 427 -570 691 -781 41 -32 76 -61 79 -64 3 -3 19 -14 35 -26 17 -11 62
-42 100 -69 90 -63 292 -165 326 -165 14 0 57 -15 95 -33 84 -41 247 -95 339
-113 21 -4 36 -7 120 -24 140 -27 222 -35 395 -34 133 0 173 4 280 28 289 65
481 156 770 363 100 73 99 71 218 198 246 262 393 516 437 755 4 19 8 42 10
50 1 8 6 49 10 90 10 106 12 121 23 157 7 22 7 36 -2 50 -7 10 -13 47 -14 83
-3 108 -34 302 -72 451 -12 45 -19 83 -16 86 2 3 -6 25 -20 50 -13 25 -24 52
-24 58 0 19 -76 198 -127 300 -49 97 -97 181 -149 260 -47 71 -75 165 -81 271
-7 112 0 144 29 144 47 0 222 -124 340 -239 82 -82 172 -196 183 -233 4 -13
36 -81 70 -153 111 -228 118 -264 130 -685 10 -386 27 -679 40 -700 9 -15 12
-37 20 -158 3 -63 8 -124 10 -135 2 -12 6 -71 10 -132 3 -60 8 -127 10 -148 7
-74 18 -252 16 -267 -6 -38 -4 -78 4 -96 4 -10 9 -35 10 -54 3 -40 13 -179 20
-260 3 -30 7 -91 10 -135 11 -165 16 -221 20 -270 2 -27 7 -86 10 -130 3 -44
8 -102 10 -130 10 -114 16 -197 20 -296 3 -57 7 -113 9 -124 2 -11 7 -65 11
-120 3 -55 8 -119 10 -142 2 -23 6 -84 9 -135 4 -51 9 -113 11 -138 6 -69 14
-191 21 -340 3 -74 7 -148 9 -165 2 -16 3 -47 4 -67 1 -20 8 -44 17 -52 20
-20 51 -8 155 62 86 58 144 115 189 185 16 26 36 47 43 47 16 0 19 25 7 60 -5
14 -11 85 -14 158 -3 74 -8 137 -10 141 -3 4 -8 55 -11 112 -3 57 -7 124 -9
149 -5 51 -15 231 -21 365 -2 50 -6 115 -9 145 -2 30 -7 102 -11 160 -3 58 -8
134 -10 170 -3 36 -7 110 -10 165 -3 55 -7 134 -10 175 -34 504 -39 644 -23
670 10 16 10 26 -5 52 -9 18 -19 60 -22 93 -10 123 -16 244 -21 373 -2 74 -6
137 -8 140 -2 4 -7 68 -11 142 -4 74 -9 151 -10 170 -2 19 -6 100 -10 180 -3
80 -8 164 -10 187 -3 23 -7 93 -10 155 -3 62 -8 127 -10 143 -2 17 0 46 4 66
5 22 4 43 -1 54 -12 21 -12 16 -35 400 -4 66 -8 164 -8 218 0 81 -3 98 -16
102 -9 3 -23 20 -30 38 -25 62 -91 169 -151 248 -68 89 -252 270 -343 337 -93
68 -234 134 -320 149 -16 3 -31 6 -33 8 -2 2 21 17 50 33 276 159 498 456 622
832 22 69 44 128 49 131 5 3 7 15 6 25 -3 17 5 76 17 137 2 12 7 42 10 67 3
25 7 56 10 70 6 35 6 333 0 362 -3 12 -7 48 -10 79 -20 209 -114 478 -232 662
-24 37 -44 71 -44 76 0 5 -40 51 -90 102 -49 52 -90 97 -90 101 0 4 -8 9 -17
12 -10 3 -54 33 -98 65 -283 211 -706 374 -1110 427 -22 3 -51 8 -65 11 -29 6
-476 14 -481 8z m295 -92 c20 -17 36 -35 36 -40 0 -4 -12 -16 -26 -27 -25 -18
-27 -18 -194 28 -93 25 -171 46 -174 46 -3 0 -6 4 -6 8 0 5 26 10 57 11 31 1
59 3 60 5 2 2 51 3 108 2 101 -1 104 -2 139 -33z m301 1 c44 -8 85 -14 90 -14
6 -1 -35 -16 -89 -35 -96 -34 -100 -34 -120 -18 -12 10 -24 23 -28 28 -4 6 -8
6 -8 1 0 -5 -6 -3 -13 3 -8 6 -16 8 -19 5 -3 -3 -16 9 -28 27 l-23 31 79 -7
c43 -4 115 -13 159 -21z m-930 -85 c-39 -39 -94 -96 -124 -126 -29 -30 -57
-51 -62 -46 -15 16 -69 121 -69 135 0 10 45 29 138 57 75 24 142 44 147 46 38
13 31 -4 -30 -66z m379 -4 c220 -64 236 -69 236 -89 0 -8 7 -22 15 -30 14 -14
-1 -40 -151 -263 -92 -136 -169 -251 -173 -255 -7 -8 -24 7 -227 198 -71 67
-148 139 -171 161 -24 21 -43 42 -43 45 0 4 61 70 135 146 98 100 142 138 161
140 15 1 112 -23 218 -53z m981 -17 c66 -22 155 -56 198 -75 72 -34 77 -38 77
-67 0 -18 4 -36 9 -41 4 -6 6 -32 2 -60 l-6 -50 -45 3 c-36 3 -50 10 -75 38
-21 25 -41 37 -70 41 -22 3 -42 9 -45 13 -3 4 -42 48 -86 96 -45 49 -94 104
-109 122 l-28 33 29 -6 c16 -4 83 -25 149 -47z m-215 -6 c68 -72 185 -205 193
-219 5 -8 7 -17 4 -19 -3 -3 -110 39 -238 94 -129 55 -240 101 -247 103 -19 6
210 87 233 82 11 -3 36 -21 55 -41z m-1475 -38 c15 -6 60 -82 53 -89 -2 -2
-43 1 -93 6 -49 6 -98 11 -107 12 -10 1 -18 3 -18 4 0 2 33 19 73 37 39 19 73
35 74 35 1 1 9 -2 18 -5z m1405 -167 c135 -56 246 -108 246 -115 1 -7 2 -19 3
-28 0 -9 18 -32 38 -52 l36 -37 -22 -200 c-12 -110 -35 -324 -51 -475 -39
-358 -37 -344 -48 -348 -5 -1 -18 -9 -28 -16 -23 -17 -4 -34 -444 379 -47 44
-150 141 -229 215 -80 74 -162 151 -183 171 -21 20 -38 40 -38 45 0 5 78 124
173 264 164 242 174 254 207 258 19 2 46 12 60 22 14 11 27 20 30 20 3 0 116
-46 250 -103z m-1525 28 c17 -2 62 -7 100 -10 39 -4 73 -9 78 -12 5 -3 -348
-223 -359 -223 -2 0 -1 10 1 23 2 12 9 62 15 112 14 112 26 128 89 120 25 -4
60 -8 76 -10z m2337 -72 c92 -60 126 -88 96 -79 -7 3 -36 7 -65 10 -29 2 -62
11 -74 20 -18 12 -79 108 -79 123 0 6 12 -1 122 -74z m-2555 50 c-3 -5 -8 -37
-11 -73 -20 -198 -20 -198 -151 -215 -30 -4 -94 -14 -130 -21 -10 -2 -37 -6
-60 -10 -22 -3 -60 -9 -84 -14 l-43 -8 48 49 c57 58 199 163 326 241 89 55
114 67 105 51z m2408 -63 c19 -38 19 -37 -10 -37 -21 0 -25 4 -25 27 0 23 7
40 16 40 2 0 10 -13 19 -30z m-1961 -70 c6 -63 64 -557 70 -610 3 -19 7 -55
10 -80 19 -175 19 -166 3 -150 -29 30 -507 648 -507 656 0 13 404 254 411 246
4 -4 9 -32 13 -62z m166 -45 c145 -137 215 -203 264 -248 34 -31 47 -51 44
-64 -3 -10 -73 -125 -156 -256 -164 -260 -153 -251 -167 -132 -4 28 -8 64 -10
80 -2 17 -7 55 -10 85 -3 30 -13 111 -21 180 -8 69 -21 184 -29 255 -8 72 -18
145 -21 164 -5 33 -4 34 13 21 10 -8 52 -46 93 -85z m1673 26 c10 -1 9 -71 -1
-71 -8 0 -25 18 -59 61 -11 13 -8 15 20 13 18 -1 35 -2 40 -3z m175 -28 c11
-10 41 -57 67 -105 l46 -86 -113 43 -113 43 3 38 c5 78 9 84 51 84 23 0 47 -7
59 -17z m237 -17 c14 -2 45 -46 102 -142 45 -76 81 -140 79 -141 -8 -9 -203
74 -216 91 -8 11 -39 62 -67 114 l-53 94 68 -6 c37 -4 76 -8 87 -10z m-480
-53 c20 -21 43 -50 53 -65 9 -16 20 -28 24 -28 10 0 591 -871 585 -877 -4 -4
-60 -12 -177 -28 -19 -2 -114 -16 -210 -29 -96 -14 -213 -30 -260 -36 -47 -6
-96 -13 -109 -15 -18 -3 -34 6 -64 35 l-39 40 12 116 c6 63 13 125 15 137 2
12 6 54 10 92 6 67 20 200 30 275 3 19 12 105 20 190 9 85 18 164 20 175 2 11
4 25 4 32 1 10 15 17 43 22 4 0 23 -16 43 -36z m-2370 -112 c-6 -4 -100 -79
-210 -166 -110 -87 -207 -164 -216 -172 -19 -16 -20 -31 11 146 11 63 20 118
20 122 0 3 12 11 28 17 26 10 50 15 137 27 22 4 47 8 55 10 8 2 42 7 75 11 33
3 62 8 64 10 2 2 13 4 25 4 12 0 16 -4 11 -9z m375 -321 c140 -180 256 -333
258 -339 2 -6 -2 -11 -8 -11 -14 0 -216 47 -933 216 -64 15 -116 31 -115 35 3
8 530 427 538 428 3 0 120 -148 260 -329z m2355 240 c30 -15 52 -38 88 -94 26
-42 47 -79 47 -85 0 -5 3 -11 8 -13 10 -4 61 -84 72 -113 5 -13 22 -32 37 -42
29 -18 273 -254 273 -263 0 -5 -13 -20 -107 -123 -19 -22 -36 -37 -37 -35 -5
5 -541 811 -550 825 -7 13 97 -23 169 -57z m380 -12 c9 -16 12 -28 8 -28 -8 0
-12 5 -52 75 l-23 40 25 -30 c14 -16 33 -42 42 -57z m-3587 -75 c-4 -27 -10
-59 -13 -73 -2 -14 -9 -55 -15 -92 l-12 -67 -140 -71 c-78 -39 -143 -69 -145
-67 -11 12 307 415 328 417 4 0 2 -21 -3 -47z m3525 -33 c9 -8 -52 -109 -65
-110 -6 0 -108 162 -108 173 0 7 162 -52 173 -63z m-1876 3 c35 -34 290 -273
388 -364 38 -37 86 -82 106 -100 20 -19 92 -86 159 -149 67 -63 138 -129 158
-147 53 -47 51 -75 -9 -118 -27 -19 -54 -35 -59 -35 -6 0 -10 -4 -10 -10 0 -5
-6 -10 -14 -10 -8 0 -16 -3 -18 -7 -5 -12 -66 -53 -78 -53 -5 0 -10 -4 -10
-10 0 -5 -6 -10 -14 -10 -8 0 -16 -3 -18 -7 -5 -12 -66 -53 -78 -53 -5 0 -10
-4 -10 -10 0 -5 -6 -10 -14 -10 -8 0 -16 -3 -18 -7 -5 -12 -66 -53 -78 -53 -5
0 -10 -4 -10 -10 0 -5 -6 -10 -14 -10 -8 0 -16 -3 -18 -7 -5 -11 -66 -53 -77
-53 -5 0 -11 -3 -13 -8 -1 -4 -34 -27 -73 -52 -38 -24 -72 -47 -75 -50 -3 -3
-37 -26 -76 -51 -106 -70 -96 -83 -236 298 -65 175 -131 352 -146 394 l-29 76
24 27 c24 29 31 83 13 115 -8 15 20 66 146 265 86 135 159 246 163 246 5 0 21
-12 38 -27z m2012 -38 c0 -5 -6 1 -14 15 -8 14 -14 30 -14 35 0 6 6 -1 14 -15
8 -14 14 -29 14 -35z m7 -150 c43 -74 81 -135 85 -135 9 0 33 -99 25 -107 -3
-3 -40 27 -82 68 -43 41 -101 97 -131 125 -29 29 -53 58 -53 66 0 12 66 118
74 118 2 0 39 -61 82 -135z m-3306 -180 c80 -19 262 -62 405 -95 348 -81 335
-78 335 -99 0 -10 9 -26 20 -36 11 -10 20 -28 20 -39 0 -35 -122 -680 -130
-689 -7 -8 -402 111 -846 254 -156 50 -143 22 -150 309 -3 135 -7 292 -8 350
-2 58 -1 110 1 116 4 12 37 5 353 -71z m-668 -83 c-71 -72 -95 -84 -87 -43 2
9 4 17 5 19 2 1 3 8 4 15 1 10 129 86 148 87 4 0 -27 -35 -70 -78z m168 56
c-32 -83 -191 -413 -197 -411 -4 1 -8 8 -9 15 -1 7 -5 29 -8 48 -3 19 -9 59
-12 88 l-6 52 113 114 c63 62 117 114 121 115 4 0 3 -9 -2 -21z m85 -189 c3
-107 7 -245 9 -307 3 -83 1 -112 -7 -109 -7 2 -65 21 -129 41 -77 25 -118 42
-118 51 0 8 52 125 115 261 63 136 115 251 115 257 0 6 2 8 5 5 3 -3 8 -92 10
-199z m3861 -123 c3 -121 1 -157 -9 -163 -7 -4 -19 -22 -26 -40 -7 -17 -21
-39 -30 -47 -16 -15 -20 -8 -55 102 -35 111 -45 176 -28 184 4 2 34 34 66 71
38 43 63 64 69 58 5 -5 11 -79 13 -165z m-4256 144 c0 -19 -58 -95 -67 -87 -4
4 57 107 63 107 2 0 4 -9 4 -20z m44 -265 c15 -118 15 -120 -7 -155 -11 -19
-25 -36 -29 -38 -4 -2 -8 -7 -8 -12 0 -5 -29 -57 -65 -117 l-65 -108 -1 95 c0
52 -2 154 -4 227 l-4 132 77 70 c90 82 83 89 106 -94z m1760 -225 c93 -252
134 -376 126 -378 -7 -3 -20 -12 -29 -21 -16 -16 -29 -13 -194 38 -135 41
-177 58 -177 70 0 9 25 152 56 316 30 165 58 315 61 333 3 18 9 30 13 25 4 -4
69 -177 144 -383z m2202 313 c-8 -26 -69 -220 -136 -433 -32 -102 -62 -193
-65 -202 -5 -14 -19 -18 -54 -18 -25 0 -121 -3 -212 -7 l-165 -6 -94 204 c-51
112 -103 225 -115 251 -19 40 -21 49 -9 59 8 6 14 17 14 23 0 6 4 16 8 23 6
10 219 43 554 87 41 5 117 16 183 26 86 13 97 12 91 -7z m113 -283 c1 -15 -52
-86 -145 -196 -23 -27 -51 -60 -63 -74 l-21 -25 20 60 c10 33 47 148 81 255
l62 195 33 -100 c18 -55 33 -107 33 -115z m-4318 -112 c1 -279 3 -274 -124
-329 -87 -37 -87 -37 -87 -14 0 42 197 581 208 570 2 -1 3 -103 3 -227z m3189
224 c0 -12 65 -33 82 -27 10 4 43 -57 122 -229 59 -129 105 -239 102 -244 -3
-6 -74 -11 -164 -12 -86 -1 -209 -3 -272 -5 -63 -2 -245 -6 -405 -9 l-290 -6
405 270 c223 149 408 270 413 270 4 0 7 -4 7 -8z m-2715 -117 c66 -21 123 -40
127 -44 3 -3 9 -132 13 -286 4 -154 8 -326 10 -383 1 -57 1 -102 0 -100 -3 3
-98 290 -233 705 -28 84 -47 151 -43 149 3 -2 60 -20 126 -41z m3964 -2 c-4
-27 -8 -57 -8 -67 -1 -28 -17 -8 -25 30 -5 23 -1 37 14 57 12 15 23 27 24 27
2 0 -1 -21 -5 -47z m-4130 -55 c11 -35 72 -222 136 -417 63 -194 114 -355 113
-357 -2 -1 -40 32 -84 74 -45 42 -146 138 -224 212 -173 163 -180 170 -180
187 0 7 12 32 28 56 15 23 29 47 32 52 8 18 154 255 156 255 1 0 11 -28 23
-62z m981 -208 c190 -62 348 -115 352 -119 6 -6 -4 -72 -33 -212 l-11 -56
-440 -147 c-418 -141 -440 -147 -453 -129 -10 13 -15 52 -15 138 -1 66 -3 185
-6 265 -2 80 -6 208 -8 285 -2 77 0 147 5 156 7 13 24 10 136 -27 70 -23 283
-93 473 -154z m3084 116 l23 -68 -19 -67 c-47 -156 -123 -320 -214 -456 -69
-105 -91 -131 -100 -122 -5 4 -7 98 -6 209 1 214 8 246 60 306 11 13 35 42 54
64 104 130 171 208 175 205 1 -2 14 -34 27 -71z m-2512 -302 c79 -26 147 -49
152 -52 6 -3 -68 -32 -164 -64 -95 -32 -175 -56 -177 -55 -1 2 4 41 13 88 19
111 24 129 29 129 2 0 68 -21 147 -46z m2128 18 c0 -16 -214 -372 -220 -365
-10 11 -160 339 -160 350 0 5 60 11 132 12 73 1 134 3 135 4 3 4 113 3 113 -1z
m-431 -64 c10 -24 53 -117 95 -207 43 -93 72 -169 68 -176 -4 -7 -63 -72 -131
-144 -68 -72 -134 -143 -148 -157 -15 -17 -27 -23 -31 -17 -6 10 -257 161
-924 557 -168 99 -198 121 -198 140 0 22 4 24 48 24 72 -1 827 14 829 15 1 1
85 3 187 5 l185 3 20 -43z m-3640 -204 c-73 -307 -76 -321 -79 -299 -1 11 -4
29 -5 40 -1 11 -5 39 -8 61 -3 23 -11 90 -17 148 -6 59 -14 127 -19 151 -4 24
-5 48 -2 53 8 14 175 80 179 72 2 -4 -20 -106 -49 -226z m167 124 c26 -40 70
-109 99 -153 29 -44 98 -152 155 -240 137 -214 245 -381 302 -468 26 -39 46
-73 44 -74 -1 -1 -182 69 -402 157 -219 88 -403 161 -408 163 -4 1 28 154 73
338 44 185 81 339 81 342 0 17 12 2 56 -65z m218 -107 c44 -42 87 -83 96 -91
79 -71 176 -171 178 -185 8 -44 23 -65 49 -70 15 -4 33 -9 40 -13 14 -8 603
-688 603 -696 0 -9 -378 136 -449 172 -31 16 -121 136 -121 161 0 6 -4 11 -9
11 -5 0 -13 9 -16 20 -3 11 -12 26 -18 32 -21 22 -87 127 -87 138 0 5 -4 10
-8 10 -5 0 -19 19 -32 43 -13 23 -39 63 -57 89 -18 26 -33 50 -33 53 0 3 -5
11 -11 18 -14 16 -99 148 -99 154 0 2 -11 19 -25 37 -14 18 -25 35 -25 39 0 3
-33 54 -73 114 -41 59 -77 115 -82 123 -9 16 54 -40 179 -159z m1786 110 c0
-14 70 -43 90 -38 17 4 30 -39 126 -432 58 -240 107 -440 108 -445 1 -7 -241
-81 -328 -101 -11 -3 -76 -20 -145 -40 -183 -50 -474 -125 -478 -122 -1 2 11
75 27 163 17 87 33 173 36 189 5 28 89 486 117 635 l12 64 200 68 c199 67 235
76 235 59z m1902 -164 l-3 -132 -84 3 -85 3 25 47 c14 26 30 54 35 62 31 47
100 172 101 183 1 7 4 2 7 -11 4 -12 6 -82 4 -155z m-1164 -180 c287 -171 519
-314 515 -317 -17 -15 -855 -242 -862 -234 -4 5 -54 198 -111 429 -57 231
-105 428 -108 438 -6 25 -50 50 566 -316z m-3078 132 c6 -57 12 -120 15 -139
2 -19 7 -66 11 -105 3 -38 9 -89 14 -111 4 -23 3 -49 -2 -58 -5 -9 -8 -27 -7
-39 2 -12 -4 -33 -13 -47 -9 -14 -42 -68 -73 -120 -32 -52 -60 -97 -62 -100
-6 -5 3 172 12 250 13 112 38 285 57 390 11 63 22 132 25 153 3 21 7 36 9 34
2 -2 9 -50 14 -108z m1835 49 c-4 -12 -43 -219 -120 -643 -29 -158 -66 -338
-70 -346 -16 -24 -48 0 -137 104 -54 61 -109 126 -123 142 -15 17 -46 53 -70
80 -23 28 -59 68 -78 90 -194 222 -257 300 -245 304 7 2 198 66 423 142 226
76 413 138 417 138 4 1 5 -5 3 -11z m2397 -199 c6 -4 9 -11 7 -17 -12 -31
-252 -203 -265 -189 -3 3 10 53 28 111 l33 106 93 -2 c51 -2 98 -5 104 -9z
m-308 -126 c-8 -27 -19 -65 -25 -85 -7 -20 -19 -40 -28 -44 -25 -11 -112 -21
-109 -13 3 6 170 186 175 188 1 1 -5 -20 -13 -46z m-3723 -228 c35 -14 73 -30
84 -35 11 -5 173 -70 360 -145 251 -100 347 -142 365 -163 31 -33 100 -138
100 -151 0 -5 5 -11 12 -13 26 -9 -5 -26 -59 -32 -79 -9 -424 -55 -613 -81
-261 -37 -339 -43 -364 -32 -28 13 -28 7 -11 177 2 25 7 77 10 115 3 39 8 89
10 113 3 23 7 82 11 130 6 84 11 134 13 140 2 6 22 0 82 -23z m3639 16 c0 -6
-4 -13 -10 -16 -5 -3 -26 -36 -47 -73 l-37 -66 -12 64 c-18 92 -19 88 34 93
26 2 53 4 60 5 6 1 12 -2 12 -7z m293 -44 c42 -16 75 -32 73 -35 -3 -2 -30 -4
-61 -4 -52 0 -58 2 -98 42 -48 49 -45 49 86 -3z m-193 -44 c0 -2 -18 -3 -40
-3 -22 0 -40 3 -40 7 0 3 12 22 26 41 l27 34 13 -38 c8 -22 14 -40 14 -41z
m-404 -148 c-45 -118 -84 -217 -88 -220 -6 -7 -658 181 -670 193 -5 5 15 14
44 21 29 8 100 27 158 44 58 16 112 31 120 32 8 2 15 4 15 5 0 1 9 3 20 6 11
2 121 33 245 68 124 36 228 65 231 65 4 1 -30 -96 -75 -214z m149 50 l7 -53
-68 -71 c-37 -39 -69 -70 -70 -68 -2 2 22 70 53 152 62 161 63 162 78 40z
m-3640 83 c-2 -7 -6 -51 -10 -98 -3 -47 -8 -101 -10 -120 -4 -38 -17 -204 -18
-232 -2 -40 -14 -11 -48 120 l-36 138 60 102 c57 97 71 117 62 90z m4241 -59
c15 -13 107 -169 102 -174 -2 -2 -26 18 -54 43 -28 26 -74 67 -103 92 -43 37
-49 45 -34 51 24 8 73 2 89 -12z m-313 0 c8 -9 67 -163 64 -165 -6 -6 -227
146 -227 156 0 12 154 21 163 9z m101 -5 c3 -8 10 -13 15 -10 8 5 74 -41 96
-67 6 -7 30 -29 55 -49 25 -20 57 -47 71 -60 14 -13 55 -48 90 -78 84 -73 102
-91 96 -96 -3 -3 -42 4 -88 15 -46 11 -104 23 -127 27 -27 4 -46 13 -49 23
-10 28 -34 50 -49 44 -15 -6 -54 23 -54 39 0 5 -20 57 -45 115 -25 58 -45 107
-45 109 0 12 29 2 34 -12z m588 -321 c18 -30 17 -31 -7 -47 -23 -15 -25 -14
-69 27 -39 36 -186 269 -186 293 0 14 244 -240 262 -273z m-714 139 c61 -42
110 -77 108 -79 -4 -4 -296 58 -305 64 -2 2 1 20 7 40 6 21 14 48 18 61 7 27
-15 37 172 -86z m-1371 -61 c-58 -58 -159 -161 -225 -229 l-119 -123 -256 103
c-141 57 -253 106 -249 109 4 3 142 43 307 89 165 46 329 91 365 101 230 64
275 74 279 66 2 -5 -44 -57 -102 -116z m378 24 c255 -73 470 -137 473 -140 6
-6 -91 -370 -102 -381 -6 -6 -67 -23 -136 -39 -199 -44 -192 -43 -220 -23 -70
52 -65 40 -134 328 -37 151 -69 283 -72 293 -5 15 -2 18 13 13 10 -3 90 -26
178 -51z m-181 -266 l68 -281 -25 -26 -26 -26 -246 98 c-135 54 -245 102 -243
106 4 10 391 409 398 410 3 0 36 -127 74 -281z m-1477 196 c68 -27 122 -49
120 -51 -2 -2 -67 -10 -157 -20 l-56 -6 -37 56 c-20 30 -37 60 -37 66 0 5 -4
10 -10 10 -5 0 -10 5 -10 10 0 6 13 5 33 -3 17 -7 87 -35 154 -62z m2330 43
c-8 -13 -31 -54 -52 -91 -36 -67 -37 -68 -52 -47 -17 24 -20 19 67 112 49 53
57 59 37 26z m-3726 -40 c6 -24 13 -50 15 -58 1 -8 17 -71 35 -140 l32 -125
-35 -64 -36 -64 -7 69 c-3 38 -8 83 -10 99 -7 59 -17 325 -11 325 3 0 10 -19
17 -42z m4215 -61 c2 -1 19 -40 39 -86 l35 -84 -65 61 c-36 34 -90 80 -120
103 -30 23 -55 43 -55 44 0 3 163 -34 166 -38z m-451 -60 c0 -45 3 -100 7
-122 l7 -40 -44 50 c-24 28 -44 55 -45 62 0 13 65 133 73 133 1 0 2 -37 2 -83z
m-2060 -9 c5 -5 10 -18 11 -31 3 -40 14 -151 19 -192 3 -22 7 -65 10 -95 3
-30 8 -77 11 -105 2 -27 7 -72 10 -100 12 -119 13 -145 6 -145 -4 0 -20 21
-37 48 -16 26 -62 97 -102 159 -40 62 -73 117 -73 123 0 5 -4 10 -10 10 -5 0
-10 7 -10 15 0 8 -4 15 -10 15 -5 0 -10 6 -10 14 0 8 -4 16 -8 18 -10 4 -166
248 -161 252 2 2 63 11 134 20 72 10 137 18 145 20 16 2 59 -12 75 -26z m2797
7 c61 -14 119 -25 129 -25 10 0 21 -10 24 -22 4 -13 20 -54 37 -93 16 -38 33
-79 38 -90 4 -11 20 -47 35 -80 15 -33 28 -64 30 -70 1 -5 6 -18 10 -28 5 -12
-1 -48 -15 -95 -27 -89 -38 -106 -46 -74 -4 12 -10 22 -14 22 -5 0 -12 10 -15
21 -4 12 -25 49 -46 83 -21 33 -39 67 -39 74 0 6 -4 12 -9 12 -5 0 -13 10 -17
23 -4 12 -10 24 -13 27 -4 3 -21 29 -39 58 -29 48 -108 162 -131 188 -21 25
-51 94 -41 94 6 0 61 -11 122 -25z m348 -47 c11 -23 19 -43 17 -44 -4 -5 -77
66 -77 75 0 11 22 20 33 14 4 -2 16 -23 27 -45z m-1270 -58 c-26 -51 -35 -47
-20 11 18 73 21 77 32 53 7 -16 5 -31 -12 -64z m-2281 32 c20 -21 43 -52 51
-68 9 -16 53 -88 100 -160 47 -72 90 -138 95 -146 6 -9 43 -66 82 -127 40 -61
68 -111 64 -111 -9 0 -52 15 -326 115 -49 18 -173 62 -275 99 -949 340 -872
305 -700 326 47 6 101 13 120 15 19 3 85 12 145 20 61 8 179 23 262 35 84 11
179 23 210 26 32 4 60 8 62 10 2 2 20 4 39 4 28 0 43 -8 71 -38z m736 -62
c127 -50 233 -95 237 -98 6 -7 -411 -443 -423 -442 -3 0 -6 17 -7 39 -2 21 -4
47 -6 58 -2 11 -7 53 -11 94 -4 41 -8 88 -11 104 -2 17 -6 62 -10 100 -8 86
-10 103 -19 184 -6 52 -4 63 7 59 7 -3 117 -47 243 -98z m2810 -22 c17 -15 33
-28 38 -28 12 0 8 -22 -16 -88 l-24 -63 -50 118 c-75 175 -75 176 -22 128 24
-21 58 -52 74 -67z m-362 -108 c13 -19 32 -51 43 -70 10 -19 25 -41 32 -48 27
-29 10 -24 -22 7 -19 18 -36 46 -40 62 -4 24 -10 29 -34 29 -28 0 -32 6 -71
100 -22 55 -41 103 -41 106 0 6 83 -110 133 -186z m-773 85 c29 -36 51 -67 49
-69 -8 -6 -209 -53 -209 -49 0 10 95 183 101 183 3 0 29 -29 59 -65z m-3497
-98 c55 -97 167 -297 202 -362 21 -38 49 -90 63 -115 14 -25 38 -70 54 -100
16 -30 33 -59 37 -65 5 -5 28 -48 52 -95 24 -47 47 -87 50 -90 9 -8 67 -120
62 -120 -6 0 -286 191 -293 200 -3 3 -21 16 -40 28 -19 12 -43 28 -52 35 -11
9 -40 115 -92 333 -42 175 -80 334 -85 353 -19 66 4 65 42 -2z m820 -241 c345
-124 632 -226 638 -226 21 0 3 -34 -26 -50 -25 -14 -507 -278 -742 -406 -33
-19 -68 -34 -76 -34 -8 0 -27 26 -43 57 -16 32 -34 63 -41 70 -6 7 -15 23 -19
36 -3 12 -12 29 -19 37 -7 8 -34 58 -61 110 -27 52 -52 97 -55 100 -3 3 -24
39 -46 80 -34 65 -75 139 -181 330 -14 25 -40 73 -59 107 l-34 62 68 -23 c37
-13 350 -125 696 -250z m1582 152 c241 -96 257 -104 262 -130 3 -16 21 -41 40
-57 30 -24 33 -31 24 -52 -10 -23 -43 -130 -167 -529 -32 -102 -58 -186 -60
-188 -2 -3 -240 151 -279 180 -11 9 -321 212 -446 293 -66 42 -77 54 -87 89
l-11 41 145 146 c80 80 180 183 222 228 42 44 82 81 89 81 7 0 128 -46 268
-102z m-2490 12 c4 -19 29 -127 56 -240 64 -267 63 -263 41 -220 -10 19 -56
103 -101 185 -95 170 -98 190 -51 266 16 27 30 55 30 62 1 20 17 -15 25 -53z
m3676 38 c1 -23 -3 -142 -6 -173 -2 -16 -3 -38 -4 -48 -1 -14 -13 -6 -53 31
-29 27 -77 71 -107 98 l-53 49 103 26 c126 33 119 32 120 17z m1134 -79 c4
-46 8 -108 10 -136 2 -29 0 -53 -4 -53 -9 0 -38 132 -39 175 -1 33 17 110 23
103 3 -2 7 -42 10 -89z m-1012 -36 c25 -38 64 -106 87 -152 65 -130 134 -309
102 -266 -4 6 -54 53 -112 105 -152 137 -139 115 -139 242 1 99 5 138 14 138
2 0 24 -30 48 -67z m-323 -177 c77 -115 140 -212 140 -216 0 -5 5 -10 11 -12
6 -2 13 -15 14 -28 2 -14 4 -29 5 -35 1 -5 2 -42 1 -81 l-1 -70 -193 -62
c-107 -34 -197 -62 -201 -62 -7 0 -53 94 -183 380 -14 30 -45 98 -70 150 -42
90 -44 97 -32 132 12 37 16 39 84 52 11 2 60 13 108 25 49 12 103 23 120 27
17 3 33 7 36 10 11 10 27 -10 161 -210z m1116 -52 c12 -18 11 -30 -15 -105
l-28 -84 -11 36 c-5 20 -19 46 -31 58 -11 11 -21 30 -21 40 0 22 -73 211 -101
261 -13 23 18 -4 87 -75 58 -60 112 -119 120 -131z m-1037 121 c118 -108 110
-97 105 -156 -3 -29 -6 -55 -8 -56 -3 -3 -165 241 -191 287 -10 17 15 -2 94
-75z m1211 -120 l29 -110 -54 56 c-29 31 -52 62 -51 70 12 62 37 122 43 104 2
-6 16 -60 33 -120z m-1755 -162 c60 -131 121 -265 137 -297 15 -33 28 -64 28
-70 0 -6 -111 -43 -248 -83 -192 -56 -250 -69 -259 -60 -9 9 15 96 104 380 64
202 119 367 123 367 3 0 55 -107 115 -237z m1812 205 c-3 -8 -6 -5 -6 6 -1 11
2 17 5 13 3 -3 4 -12 1 -19z m-4788 -219 l81 -156 -32 -92 c-19 -54 -35 -86
-39 -79 -14 26 -109 454 -109 492 0 21 20 -12 99 -165z m3804 37 c53 -48 112
-102 132 -118 19 -17 35 -36 35 -42 0 -6 -4 -5 -9 3 -8 12 -23 10 -94 -13 -47
-14 -87 -26 -90 -26 -11 0 -88 130 -89 151 -4 59 3 140 11 137 5 -1 52 -43
104 -92z m977 -87 c6 -11 5 -32 -4 -60 -25 -75 -63 -201 -86 -279 l-22 -74
-40 114 c-43 127 -44 134 -14 310 25 147 19 142 92 69 36 -35 69 -71 74 -80z
m-3213 11 c14 -11 32 -20 39 -20 18 0 18 0 -6 -144 -12 -67 -23 -132 -25 -146
-19 -116 -106 -630 -110 -648 l-6 -23 -47 33 c-26 18 -51 36 -57 41 -5 4 -84
60 -175 123 -91 63 -173 121 -182 129 -9 7 -25 18 -36 24 -11 6 -26 17 -34 24
-7 7 -42 32 -78 56 -178 121 -172 113 -113 147 60 34 111 62 188 104 33 18
107 59 165 90 149 82 433 230 443 230 5 0 20 -9 34 -20z m538 -231 c198 -131
365 -242 370 -246 6 -5 17 -12 26 -15 29 -11 10 -53 -58 -124 -431 -456 -584
-612 -603 -617 -15 -4 -260 158 -302 201 -19 19 -15 47 83 612 11 63 31 180
44 259 23 131 33 160 58 161 5 0 5 5 1 12 -9 14 -40 34 381 -243z m1605 91 c0
-4 -9 -10 -20 -13 -17 -4 -20 0 -20 30 l0 36 20 -23 c11 -13 20 -26 20 -30z
m300 -17 c0 -37 -33 -253 -39 -253 -9 0 -144 210 -139 216 5 4 154 51 171 53
4 1 7 -7 7 -16z m-3772 -40 c20 -16 39 -30 42 -33 3 -3 12 -9 21 -15 10 -5 37
-24 60 -41 24 -17 82 -57 129 -89 133 -92 125 -79 111 -182 -6 -48 -13 -99
-16 -113 -2 -13 -7 -42 -11 -65 -3 -22 -9 -58 -14 -80 -5 -22 -12 -55 -15 -74
-7 -43 -10 -47 -35 -54 -17 -4 -30 15 -95 146 -41 84 -76 167 -77 185 -1 17
-5 32 -9 32 -4 0 -11 12 -18 28 -11 28 -121 371 -121 378 0 9 13 2 48 -23z
m-23 -266 l24 -78 -82 68 c-45 36 -87 73 -93 80 -9 10 -3 36 25 108 l36 95 33
-98 c18 -53 43 -132 57 -175z m4290 206 c-9 -61 -10 -64 -13 -27 -2 34 11 94
20 94 2 0 -1 -30 -7 -67z m316 5 c0 -35 2 -82 5 -106 4 -37 2 -47 -18 -63 -13
-11 -38 -34 -56 -51 -18 -17 -34 -29 -36 -27 -5 7 88 309 96 309 4 0 8 -28 9
-62z m-1060 21 c18 -9 199 -272 199 -288 0 -3 -13 -95 -29 -203 -21 -140 -34
-204 -48 -222 -17 -24 -65 -43 -281 -110 -20 -7 -22 -5 -18 21 2 15 7 60 11
98 3 39 8 81 10 95 3 23 10 82 21 188 2 23 6 61 9 85 2 23 9 92 15 152 7 61
13 119 15 130 2 11 4 25 4 31 1 12 37 32 59 33 7 1 22 -4 33 -10z m-166 -101
c-3 -40 -8 -84 -10 -98 -2 -14 -6 -54 -10 -90 -4 -36 -8 -76 -10 -90 -2 -14
-11 -103 -21 -198 -10 -94 -21 -169 -25 -165 -11 14 -280 605 -276 609 4 4
336 102 350 103 5 1 6 -32 2 -71z m470 -24 c4 -21 8 -46 10 -54 2 -8 7 -42 11
-75 3 -33 7 -72 9 -88 2 -15 -1 -25 -6 -22 -5 4 -9 13 -9 21 0 8 -4 14 -9 14
-13 0 -32 54 -35 100 -1 23 16 151 20 147 2 -2 6 -21 9 -43z m567 -169 c0 -15
-62 -235 -98 -344 -12 -36 -25 14 -29 110 -3 84 2 136 26 271 16 92 29 171 29
175 1 16 71 -192 72 -212z m-1412 47 c77 -168 106 -232 183 -397 41 -88 73
-162 71 -164 -6 -7 -656 406 -662 421 -2 5 -10 8 -18 8 -8 0 -14 5 -14 10 0 6
-7 10 -15 10 -8 0 -15 5 -15 10 0 6 -6 10 -12 10 -14 1 -63 38 -57 44 3 3 474
142 489 145 3 0 25 -43 50 -97z m-3059 -79 l80 -67 -3 -107 c-2 -60 -6 -105
-9 -101 -3 4 -25 50 -49 102 -24 52 -58 128 -76 168 -19 39 -31 72 -28 72 3 0
41 -30 85 -67z m649 -44 c72 -50 398 -278 530 -373 47 -33 89 -65 93 -71 8
-10 3 -108 -7 -124 -3 -5 -32 -3 -68 4 -35 7 -83 16 -108 19 -25 3 -56 8 -70
11 -14 2 -110 18 -215 35 -200 33 -241 40 -265 45 -8 2 -23 4 -33 4 -9 1 -16
4 -16 9 4 22 -4 40 -27 65 l-26 29 17 91 c9 51 19 106 22 122 2 17 11 62 20
100 8 39 16 79 18 90 1 11 3 24 4 29 0 4 16 -3 34 -16 17 -14 61 -45 97 -69z
m3974 -39 c-24 -122 -34 -154 -34 -112 0 12 0 23 0 25 0 1 -7 24 -15 51 -8 27
-15 58 -15 68 0 17 76 105 84 97 2 -2 -7 -60 -20 -129z m-1752 -203 c211 -139
404 -266 430 -282 31 -20 46 -35 42 -45 -6 -20 -284 -543 -293 -553 -4 -4
-142 41 -307 100 l-299 108 2 444 c2 413 3 444 20 461 10 11 19 19 20 19 1 1
174 -113 385 -252z m1020 195 c57 -78 56 -96 -9 -159 -55 -52 -76 -65 -68 -40
2 6 6 28 9 47 17 127 29 200 31 200 2 0 19 -22 37 -48z m-1593 -104 c-15 -46
-66 -206 -113 -357 -47 -150 -86 -275 -88 -277 -2 -2 -60 17 -128 41 -192 69
-210 76 -210 83 0 4 42 50 93 103 50 53 162 170 247 259 176 186 219 230 224
230 1 0 -10 -37 -25 -82z m2247 -145 c-2 -25 0 -43 6 -43 11 0 8 -24 -19 -153
l-16 -79 -52 97 c-34 62 -51 105 -48 119 7 30 73 258 80 276 10 25 54 -170 49
-217z m148 102 c16 -310 18 -382 10 -388 -5 -3 -23 52 -40 122 -28 120 -29
133 -18 197 16 98 35 186 39 182 2 -2 6 -52 9 -113z m-4426 -170 c-2 -2 -31
10 -65 26 l-63 29 1 102 0 103 65 -129 c35 -71 63 -130 62 -131z m2111 -132
c-1 -208 -3 -381 -5 -385 -4 -6 -193 58 -206 70 -4 4 29 122 73 262 45 140 93
294 107 343 14 48 27 87 30 87 2 0 2 -170 1 -377z m1556 205 c-3 -29 -8 -66
-11 -83 -14 -85 -68 -256 -102 -320 l-21 -40 -1 30 c-4 78 1 312 7 330 3 11
24 36 46 55 22 19 50 45 61 57 12 12 22 22 24 22 2 1 1 -23 -3 -51z m-3670
-181 c16 -47 42 -77 67 -77 23 0 31 -19 63 -150 14 -58 28 -113 32 -124 17
-59 -215 251 -271 361 -40 81 -36 87 35 55 52 -24 63 -33 74 -65z m3468 -164
l-2 -206 -33 -53 c-36 -61 -114 -161 -189 -243 -44 -49 -52 -53 -60 -38 -6 9
-19 26 -30 36 -20 19 -21 26 -14 238 10 304 11 325 25 355 10 22 29 32 114 58
55 18 119 38 141 46 22 7 42 13 45 14 3 0 4 -93 3 -207z m704 82 c54 -104 56
-134 20 -317 -17 -87 -32 -157 -33 -155 -1 1 -5 43 -8 92 -4 50 -9 119 -12
155 -2 36 -7 90 -9 120 -2 30 -7 89 -10 130 -7 85 -5 84 52 -25z m197 -48 c26
-109 30 -151 17 -196 -6 -22 -11 -16 -45 52 -36 69 -38 80 -32 129 8 58 25
132 31 127 1 -2 15 -53 29 -112z m-3261 92 c12 -7 24 -15 27 -18 3 -3 31 -23
63 -44 31 -20 57 -39 57 -41 0 -1 -24 1 -52 6 -29 5 -71 11 -93 14 -22 4 -41
7 -42 8 -4 3 10 86 14 86 2 0 14 -5 26 -11z m-563 -54 c19 -3 46 -7 60 -10 14
-2 43 -7 65 -10 22 -3 67 -10 100 -16 67 -11 80 -14 145 -24 66 -10 79 -15 75
-28 -2 -7 -6 -28 -9 -47 -12 -83 -77 -465 -80 -467 -1 -2 -152 145 -335 325
l-332 328 138 -23 c76 -12 154 -25 173 -28z m-75 -270 c159 -157 287 -285 283
-285 -3 0 -70 31 -149 68 -79 38 -190 90 -246 117 -73 34 -103 53 -103 66 0 9
-5 19 -10 21 -10 3 -79 247 -80 281 0 9 4 17 8 17 4 0 138 -128 297 -285z
m775 155 c74 -12 136 -22 137 -23 1 -1 -19 -54 -43 -117 -25 -63 -75 -195
-112 -292 -49 -131 -71 -178 -84 -178 -9 0 -54 16 -100 35 l-85 36 46 272 c46
274 53 299 91 292 8 -2 76 -13 150 -25z m1836 -106 c-3 -42 -6 -131 -7 -199
l-1 -124 -34 -16 c-19 -9 -41 -29 -49 -45 -9 -17 -17 -30 -18 -30 -4 0 -112
42 -120 47 -4 2 12 39 35 81 47 86 137 254 170 320 12 23 24 42 26 42 1 0 1
-34 -2 -76z m-1361 -31 c49 -18 81 -36 83 -45 2 -9 -31 -126 -73 -260 -42
-134 -85 -268 -94 -298 -12 -38 -22 -54 -32 -52 -22 3 -373 142 -380 150 -8 8
115 341 153 417 14 28 31 68 38 90 7 22 19 52 26 67 l14 26 92 -33 c51 -18
129 -46 173 -62z m2616 -54 l21 -41 -22 -89 c-23 -92 -39 -117 -34 -51 1 20 4
79 5 130 1 50 3 92 5 92 2 0 13 -19 25 -41z m-2344 -44 c54 -20 102 -40 108
-46 7 -7 10 -519 2 -525 -3 -3 -351 -17 -377 -15 -13 0 -28 5 -32 9 -6 6 138
493 177 600 6 17 13 16 122 -23z m2451 -5 c11 -32 10 -33 -3 -16 -8 11 -15 29
-15 40 0 25 4 19 18 -24z m-1893 -195 c105 -38 192 -70 195 -72 9 -8 -65 -136
-87 -150 -21 -14 -81 -31 -379 -111 l-112 -30 3 141 c2 78 4 190 4 249 l1 108
93 -34 c50 -18 178 -64 282 -101z m-1930 -15 c61 -28 145 -67 187 -87 56 -26
78 -41 82 -58 3 -13 14 -26 24 -29 15 -5 82 -143 82 -169 0 -19 -315 176 -430
267 -75 59 -189 162 -208 188 -13 17 16 5 263 -112z m3620 108 c-2 -13 -6
-122 -10 -243 -4 -121 -9 -247 -10 -280 -2 -33 -3 -87 -4 -119 -1 -83 -9 -67
-15 34 -12 185 -17 256 -20 275 -2 11 0 29 4 41 5 11 4 27 0 35 -6 11 28 213
45 267 7 20 12 14 10 -10z m220 -87 c31 -63 31 -67 -2 -174 -27 -90 -36 -95
-47 -24 -3 20 -9 54 -12 75 -3 20 -13 45 -21 54 -14 16 -14 25 2 97 l19 80 18
-29 c9 -16 29 -52 43 -79z m-141 -98 c3 -10 7 -30 10 -45 3 -15 7 -31 9 -35 3
-5 8 -53 11 -108 4 -55 9 -121 12 -147 4 -36 -2 -72 -25 -145 -16 -54 -37
-120 -45 -148 -15 -47 -15 -38 -10 175 4 124 8 245 9 270 2 25 4 80 4 123 1
72 13 100 25 60z m-1378 -51 c11 -6 -11 -16 -82 -35 -54 -15 -99 -25 -101 -24
-1 2 11 26 27 54 l30 52 55 -19 c30 -10 62 -23 71 -28z m-1850 -83 l43 -20
-25 -56 c-26 -60 -32 -69 -38 -62 -7 8 -66 151 -66 161 0 11 23 5 86 -23z
m1934 4 c0 -7 -18 -21 -120 -92 -103 -71 -246 -148 -360 -194 -159 -63 -159
-62 -12 83 82 80 140 130 153 130 11 0 29 5 40 11 19 10 118 38 224 63 47 12
75 11 75 -1z m-1525 -171 c-2 -2 -79 -6 -172 -8 -92 -3 -174 -7 -180 -9 -18
-6 -16 5 7 53 11 23 25 53 30 66 l9 24 155 -61 c85 -34 153 -63 151 -65z
m3008 -27 l6 -140 -25 85 c-24 84 -25 120 -3 177 5 14 11 24 13 22 2 -2 6 -67
9 -144z m-2016 43 c-25 -24 -75 -71 -111 -105 -36 -35 -72 -63 -80 -63 -15 0
-118 111 -111 119 7 6 307 89 329 90 14 1 6 -10 -27 -41z m-508 -110 c-30 -26
-76 -59 -103 -74 l-49 -27 -60 62 c-41 42 -57 65 -49 70 7 4 65 9 130 10 64 1
118 4 120 6 2 1 17 2 34 1 l30 -1 -53 -47z m-336 5 c12 -15 42 -50 66 -76 l45
-48 -30 6 c-16 3 -47 8 -69 10 -22 3 -47 8 -55 10 -8 2 -31 7 -50 10 -55 9
-210 52 -265 74 -74 29 -63 31 233 39 103 3 104 3 125 -25z m544 -52 l52 -58
-52 -12 c-62 -13 -267 -24 -266 -13 1 16 173 142 193 142 14 0 40 -21 73 -59z
m2278 -111 c2 -8 12 -44 23 -80 12 -45 16 -75 10 -95 -8 -29 -11 -41 -22 -94
-8 -37 -16 -37 -17 0 -1 19 -3 48 -4 64 -5 45 -15 181 -20 260 l-5 70 16 -55
c8 -30 17 -62 19 -70z m-88 -32 c0 -25 14 -193 18 -228 2 -19 7 -71 10 -115 3
-44 12 -89 19 -100 12 -18 9 -30 -29 -104 l-42 -84 -15 39 c-14 35 -53 123
-80 180 -7 16 4 65 47 210 64 215 63 214 68 214 2 0 4 -6 4 -12z m167 -438 l6
-155 -18 61 c-17 58 -22 161 -9 209 3 11 6 26 6 34 1 8 3 12 5 10 2 -2 7 -74
10 -159z m-39 -244 c18 -69 36 -129 39 -134 3 -5 -2 -21 -10 -36 -7 -16 -14
-34 -14 -41 0 -7 -7 -18 -15 -25 -12 -10 -20 0 -51 66 -67 148 -67 139 -26
226 20 42 38 75 40 73 2 -1 18 -60 37 -129z m-207 -61 c-23 -59 -28 -65 -29
-39 0 10 -2 26 -3 34 -2 8 -6 56 -10 105 l-6 90 34 -70 33 -70 -19 -50z m107
-151 c56 -119 59 -130 44 -166 l-12 -30 -73 79 c-41 43 -74 83 -74 89 0 23 64
148 68 133 3 -8 24 -55 47 -105z m174 -94 c0 -34 3 -82 6 -108 l6 -47 -27 52
-27 53 18 55 c11 30 20 55 21 55 1 0 2 -27 3 -60z m-232 -95 c30 -30 55 -63
56 -73 1 -17 -83 -236 -88 -230 -3 4 -12 111 -20 238 -4 52 -8 101 -10 108 -8
23 8 12 62 -43z m176 -72 l17 -38 -25 28 c-25 28 -32 47 -17 47 5 0 16 -17 25
-37z m-11 -104 c28 -29 52 -63 54 -78 3 -17 -8 -56 -26 -100 -17 -39 -35 -83
-40 -97 -8 -21 -12 -23 -23 -12 -6 7 -33 37 -59 65 l-47 51 24 64 c12 34 31
81 41 103 10 22 17 43 16 48 -4 17 13 4 60 -44z m96 -371 l-3 -62 -33 41 -32
41 32 84 33 83 3 -62 c2 -35 2 -91 0 -125z m-158 12 c5 -10 -11 -64 -48 -157
-31 -78 -57 -141 -58 -140 -1 1 -4 74 -7 162 -3 88 -9 172 -12 188 -3 15 0 37
6 49 12 22 13 21 61 -32 27 -30 53 -62 58 -70z m114 -117 l48 -53 -20 -42
c-11 -24 -37 -60 -58 -81 -44 -45 -142 -112 -151 -103 -3 3 3 29 14 58 33 86
115 279 117 276 1 -2 24 -27 50 -55z"/>
<path d="M8076 10203 c-437 -54 -837 -202 -1148 -424 -53 -38 -102 -69 -107
-69 -6 0 -11 -3 -11 -7 0 -5 -43 -52 -95 -107 -52 -54 -95 -102 -95 -107 0 -5
-20 -39 -44 -76 -124 -193 -204 -427 -235 -690 -21 -177 -13 -428 20 -592 6
-30 13 -69 14 -85 4 -39 83 -269 124 -360 39 -86 136 -252 168 -286 12 -13 23
-28 23 -31 0 -15 140 -160 212 -220 32 -27 90 -67 130 -91 52 -31 67 -44 53
-46 -43 -7 -153 -46 -210 -75 -105 -52 -162 -96 -323 -252 -116 -111 -215
-242 -276 -360 -25 -49 -46 -85 -46 -80 0 6 -5 2 -11 -8 -6 -10 -13 -82 -15
-160 -3 -78 -6 -160 -8 -182 -2 -22 -7 -107 -11 -190 -4 -82 -12 -161 -18
-175 -11 -30 -13 -72 -4 -87 4 -7 5 -29 3 -50 -6 -46 -20 -291 -18 -316 0 -9
-2 -16 -6 -13 -4 2 -7 -42 -7 -97 -1 -56 -4 -154 -8 -217 -4 -63 -10 -155 -13
-205 -3 -49 -7 -105 -10 -124 -3 -18 -7 -88 -9 -155 -2 -67 -6 -155 -9 -196
-3 -41 -8 -113 -11 -160 -3 -46 -9 -87 -14 -90 -4 -3 -13 -15 -19 -26 -9 -18
-8 -25 4 -35 14 -12 16 -33 9 -172 -3 -88 -8 -166 -10 -176 -1 -9 -6 -79 -10
-156 -4 -77 -8 -153 -10 -170 -2 -16 -7 -93 -10 -170 -4 -77 -8 -156 -10 -175
-2 -19 -6 -93 -10 -165 -4 -71 -9 -148 -11 -170 -2 -22 -6 -78 -8 -125 -10
-178 -18 -317 -22 -360 -2 -25 -6 -94 -9 -154 -4 -61 -8 -113 -10 -116 -4 -7
-17 -183 -18 -245 0 -22 -4 -45 -9 -51 -12 -16 -5 -52 14 -67 9 -6 28 -30 43
-52 41 -63 103 -123 181 -175 124 -83 156 -93 168 -52 7 24 15 131 21 285 3
72 7 161 10 197 11 140 14 188 20 270 3 47 7 105 10 130 2 25 7 88 11 140 3
52 8 106 10 120 2 14 6 72 8 130 3 58 8 125 11 150 2 25 7 88 11 140 3 52 8
113 9 135 2 22 7 83 10 135 4 52 8 111 10 130 2 19 6 80 10 135 4 55 8 116 10
135 2 19 6 85 10 145 3 61 13 135 21 166 9 37 11 65 5 86 -5 18 -8 33 -6 35 2
2 6 50 10 108 4 58 8 123 10 145 2 22 6 83 9 135 4 52 8 111 11 130 2 19 7 78
10 130 10 140 12 156 20 170 4 7 9 33 11 59 11 148 22 389 30 636 8 304 16
399 39 478 20 68 101 252 124 282 5 5 17 33 27 60 24 65 97 161 192 256 128
125 300 244 346 237 19 -3 21 -10 24 -92 3 -108 -24 -229 -67 -296 -107 -166
-226 -401 -280 -554 -18 -50 -36 -95 -41 -101 -5 -7 -12 -27 -14 -46 -3 -19
-16 -81 -30 -139 -30 -124 -55 -289 -58 -380 -1 -36 -7 -76 -13 -90 -13 -28
-13 -40 -3 -56 7 -11 11 -36 23 -155 30 -314 163 -577 444 -879 49 -52 99
-107 112 -121 13 -14 35 -32 49 -39 13 -7 51 -34 85 -60 225 -177 468 -291
755 -356 108 -24 146 -28 280 -28 139 -1 224 5 300 19 14 2 41 6 60 9 141 18
386 89 493 142 37 19 79 34 92 34 40 0 154 57 330 163 11 7 22 14 25 17 3 3
34 27 70 52 79 57 65 47 177 140 319 270 618 647 725 916 161 401 187 483 272
837 25 105 52 246 61 315 9 69 20 134 25 145 17 40 19 54 9 61 -5 3 -8 13 -5
22 3 10 8 53 12 97 3 44 8 88 10 98 14 78 23 598 12 713 -6 66 -34 287 -43
344 -99 643 -196 937 -462 1409 -51 90 -93 169 -93 176 0 6 -9 20 -20 30 -10
9 -53 67 -94 129 -117 174 -230 308 -402 478 -171 168 -218 210 -305 268 -77
53 -269 170 -278 170 -4 0 -13 6 -19 13 -7 6 -16 12 -20 12 -4 0 -47 20 -97
44 -76 36 -138 63 -270 116 -11 5 -22 9 -25 10 -3 0 -36 12 -75 25 -38 13 -74
25 -80 26 -5 1 -53 14 -105 28 -52 15 -115 29 -140 31 -25 3 -61 8 -80 11 -82
12 -489 11 -594 -3z m544 -58 c38 -5 38 -6 -10 -20 -256 -73 -314 -86 -336
-74 -13 6 -25 17 -28 24 -5 14 49 77 58 68 3 -4 6 -1 6 5 0 8 41 10 143 6 78
-3 153 -7 167 -9z m-430 -25 c-12 -17 -30 -30 -40 -30 -10 0 -25 -6 -32 -12
-40 -39 -41 -39 -133 -7 -49 16 -91 32 -93 34 -5 5 94 24 168 31 36 4 66 7 68
9 1 1 20 2 43 3 l40 2 -21 -30z m840 -62 c69 -22 128 -42 132 -44 8 -5 -57
-140 -71 -149 -8 -4 -126 110 -250 241 -10 11 60 -7 189 -48z m-132 -103 c71
-73 133 -138 137 -145 5 -8 -9 -28 -37 -54 -25 -22 -98 -90 -162 -151 -205
-192 -231 -214 -237 -207 -16 18 -320 474 -325 487 -4 8 1 31 10 50 13 26 26
37 54 45 20 5 118 34 217 63 99 29 187 51 196 49 9 -2 75 -64 147 -137z
m-1208 78 c-18 -21 -65 -73 -104 -117 -39 -43 -76 -85 -82 -94 -6 -8 -18 -13
-27 -9 -8 3 -18 3 -22 -1 -4 -4 -10 -7 -13 -8 -22 -2 -61 -30 -70 -49 -8 -17
-21 -24 -54 -27 -24 -3 -46 -2 -50 1 -10 9 -10 88 -1 139 8 43 9 44 87 78 83
37 331 123 355 124 7 0 -1 -16 -19 -37z m248 -14 c48 -17 93 -33 101 -35 8 -3
12 -6 10 -8 -11 -11 -482 -207 -486 -202 -8 7 8 29 77 107 125 143 165 179
189 174 13 -2 62 -18 109 -36z m1389 -75 l78 -37 -110 -13 c-60 -7 -111 -11
-113 -9 -8 7 40 85 48 80 6 -4 10 -1 10 4 0 15 0 15 87 -25z m-1228 -48 c13
-15 64 -31 91 -28 15 1 360 -501 360 -523 0 -6 -8 -17 -18 -26 -16 -14 -94
-86 -287 -268 -568 -534 -567 -533 -585 -516 -9 8 -22 15 -28 15 -14 0 -19 28
-37 215 -3 33 -8 74 -10 90 -2 17 -9 77 -15 135 -6 58 -13 121 -15 140 -2 19
-9 82 -15 140 -6 58 -13 119 -15 135 -3 17 -7 64 -11 106 l-7 75 34 22 c19 12
30 22 25 22 -5 0 -3 6 3 13 6 8 12 24 14 38 4 24 88 63 432 204 71 29 69 29
84 11z m1396 -66 c13 -14 50 -228 41 -237 -3 -3 -345 202 -358 215 -6 6 16 11
59 15 115 11 188 19 191 22 10 9 54 0 67 -15z m-2383 -49 c-35 -63 -62 -83
-116 -87 -22 -2 -51 -6 -63 -9 -13 -3 -23 -3 -23 -1 0 11 220 157 228 151 1
-1 -11 -25 -26 -54z m2719 -120 c49 -35 120 -93 157 -127 l67 -62 -40 8 c-22
5 -62 12 -90 15 -158 20 -287 46 -304 62 -19 18 -25 51 -38 191 l-6 74 81 -49
c45 -26 123 -77 173 -112z m-2632 74 c1 -15 -6 -21 -25 -23 -27 -2 -27 -1 -2
50 11 23 14 24 20 10 4 -9 7 -26 7 -37z m2127 -95 c93 -56 181 -110 196 -119
16 -9 28 -20 28 -24 0 -8 -478 -627 -507 -657 -17 -17 -17 -25 12 225 3 28 7
66 10 85 2 19 11 96 20 170 8 74 18 153 20 175 14 112 28 231 28 243 0 18 2
17 193 -98z m-260 63 c-3 -16 -8 -55 -11 -88 -5 -58 -13 -123 -20 -175 -2 -14
-18 -144 -35 -290 -17 -146 -33 -276 -36 -290 -6 -25 -6 -25 -20 -5 -46 62
-294 464 -294 477 0 8 17 29 37 47 20 18 97 89 171 159 144 136 205 192 210
192 2 0 1 -12 -2 -27z m-1737 -74 c-42 -53 -45 -53 -47 -9 -3 40 4 46 55 47
22 0 22 -1 -8 -38z m-114 -2 c2 -12 6 -39 7 -60 l3 -39 -100 -39 c-106 -41
-134 -48 -118 -26 6 6 27 44 47 82 46 86 63 101 115 103 35 2 41 -1 46 -21z
m-238 -90 c-29 -51 -59 -102 -67 -113 -13 -17 -207 -100 -215 -92 -2 2 34 66
79 143 l82 140 44 5 c25 3 64 6 87 8 l41 2 -51 -93z m447 50 c20 -14 19 -9 46
-262 11 -104 22 -208 24 -230 3 -22 8 -67 11 -100 4 -33 8 -71 10 -85 2 -14
11 -98 21 -188 l17 -163 -41 -39 c-29 -28 -47 -38 -64 -35 -12 2 -77 11 -143
20 -66 9 -131 18 -145 20 -14 2 -95 13 -180 25 -85 11 -164 22 -175 24 -11 2
-41 7 -67 10 -27 4 -48 9 -48 12 0 9 564 850 584 871 11 11 41 46 66 77 48 59
56 63 84 43z m2329 -239 c282 -222 392 -311 395 -318 2 -5 -35 -16 -123 -36
-5 -1 -62 -14 -125 -29 -151 -36 -241 -57 -375 -88 -60 -14 -177 -42 -260 -61
-163 -39 -178 -41 -173 -26 3 11 510 668 516 669 1 1 67 -49 145 -111z m77 97
c14 -2 45 -7 70 -11 25 -4 52 -8 60 -9 95 -12 128 -19 141 -29 11 -7 25 -57
42 -151 14 -77 25 -140 24 -141 -2 -2 -433 338 -446 352 -5 5 10 4 109 -11z
m-3183 -60 c-17 -30 -35 -55 -40 -55 -9 0 -5 8 35 68 40 59 43 52 5 -13z m507
28 c-9 -16 -135 -205 -280 -421 l-262 -393 -40 43 c-74 81 -102 112 -102 118
0 10 254 255 274 265 12 6 27 24 35 40 26 53 173 280 189 290 12 8 184 80 201
84 2 1 -5 -11 -15 -26z m3091 -130 c51 -54 177 -213 248 -315 l47 -67 -150 75
c-82 41 -150 78 -150 82 0 14 -40 237 -46 255 -9 27 3 21 51 -30z m-3448 -62
l-54 -91 -37 56 c-21 31 -34 60 -29 64 10 10 166 68 171 64 2 -1 -21 -43 -51
-93z m1957 -187 c125 -199 154 -250 146 -265 -17 -31 -11 -82 13 -113 l23 -29
-146 -394 c-170 -462 -159 -445 -254 -379 -34 22 -65 43 -71 46 -14 7 -159
104 -165 110 -6 7 -62 43 -75 50 -25 12 -190 125 -193 132 -2 5 -10 8 -18 8
-8 0 -14 3 -14 8 0 4 -13 13 -28 20 -16 6 -37 20 -48 30 -10 9 -31 23 -46 31
-16 8 -28 18 -28 23 0 4 -5 8 -11 8 -10 0 -87 50 -120 78 -19 16 -16 56 4 76
7 6 50 47 97 91 47 43 123 115 170 159 47 45 120 113 161 151 41 39 137 129
214 202 169 159 218 202 226 203 4 0 77 -111 163 -246z m-2196 201 c-6 -14
-13 -23 -15 -21 -5 5 15 46 22 46 3 0 -1 -11 -7 -25z m97 -87 c19 -29 35 -59
35 -66 0 -8 -26 -39 -58 -70 -155 -150 -212 -202 -212 -190 1 31 22 101 34
114 8 7 47 70 86 139 40 69 74 125 76 125 2 0 19 -24 39 -52z m3540 -309 c-2
-52 -6 -206 -9 -344 -7 -294 10 -261 -165 -318 -222 -72 -817 -257 -827 -257
-7 0 -135 658 -134 697 0 7 13 31 29 55 l29 43 249 59 c136 32 313 74 393 92
80 19 208 49 285 68 165 39 155 45 150 -95z m282 -97 l96 -93 -7 -52 c-13
-101 -18 -132 -25 -145 -7 -12 -31 35 -126 243 -18 38 -44 94 -59 124 -14 30
-26 57 -26 60 0 6 24 -17 147 -137z m30 104 c39 -19 74 -39 77 -44 10 -16 15
-62 7 -67 -5 -2 -43 29 -87 70 -43 41 -76 75 -73 75 3 0 38 -15 76 -34z m-150
-178 c46 -101 98 -211 114 -246 16 -34 29 -68 29 -76 0 -8 -46 -28 -117 -51
-65 -21 -123 -40 -129 -42 -11 -4 -11 56 0 422 2 72 5 143 5 159 1 16 4 27 7
23 3 -3 44 -88 91 -189z m-3841 -60 c21 -23 34 -47 34 -65 0 -15 -16 -81 -37
-147 l-37 -118 -28 32 c-15 18 -25 36 -23 40 2 4 -5 17 -17 30 -20 21 -21 29
-15 171 3 81 9 154 13 160 5 8 18 -1 42 -27 18 -21 49 -56 68 -76z m4186 28
l19 -38 -25 18 c-27 21 -46 55 -46 82 1 15 3 14 16 -3 9 -11 25 -37 36 -59z
m-1623 -491 c17 -88 34 -180 37 -205 l6 -46 -178 -55 c-173 -54 -180 -55 -195
-38 -9 11 -22 19 -28 19 -8 0 -10 8 -5 23 7 23 260 711 271 737 6 14 21 -58
92 -435z m1668 342 l43 -40 -5 -141 c-2 -78 -4 -179 -4 -226 l-1 -85 -94 157
-95 157 15 108 c8 59 16 117 18 128 3 11 5 26 5 34 1 13 30 -9 118 -92z
m-3987 29 c52 -8 115 -17 140 -20 41 -5 428 -59 526 -73 36 -5 43 -10 59 -45
16 -37 16 -43 3 -72 -9 -17 -59 -127 -113 -245 l-99 -213 -155 5 c-86 4 -181
6 -212 7 -67 0 -49 -36 -159 315 -45 143 -88 280 -96 304 -8 25 -14 46 -14 48
0 5 22 3 120 -11z m-80 -332 c43 -136 73 -241 66 -233 -49 53 -204 248 -210
264 -6 18 53 229 62 220 2 -2 39 -115 82 -251z m1410 -111 l395 -263 -185 4
c-102 3 -345 8 -540 12 -390 7 -397 7 -406 17 -4 3 42 112 102 242 l108 235
33 -4 c18 -2 33 1 33 5 0 5 7 9 15 9 8 0 15 4 15 10 0 5 8 6 18 3 9 -4 195
-125 412 -270z m2886 -38 c41 -115 79 -227 83 -247 l9 -37 -52 20 c-122 48
-135 56 -152 96 -17 39 -17 46 -14 341 l1 147 26 -55 c14 -30 58 -149 99 -265z
m-4526 170 c0 -19 -20 -69 -25 -63 -2 2 -7 29 -11 59 -3 29 -8 59 -11 64 -3 6
7 -3 21 -18 14 -15 26 -34 26 -42z m4018 -57 c-22 -68 -86 -262 -143 -433
l-103 -310 4 110 c2 61 6 234 9 385 4 151 9 277 11 280 3 3 62 24 132 47 70
23 128 42 128 42 1 1 -16 -54 -38 -121z m152 -5 c25 -42 54 -91 65 -109 11
-18 37 -61 58 -95 36 -61 46 -94 28 -101 -5 -1 -78 -69 -162 -149 -269 -256
-314 -297 -317 -294 -2 1 44 146 102 321 58 176 117 357 132 404 29 94 32 100
42 100 4 0 27 -35 52 -77z m-4030 -93 c25 -30 47 -57 50 -60 31 -30 107 -130
125 -165 23 -42 24 -55 26 -249 2 -113 0 -208 -3 -212 -11 -11 -24 3 -86 93
-77 113 -160 280 -206 415 -46 133 -46 127 -12 227 l18 53 22 -23 c11 -13 41
-49 66 -79z m3581 -120 c-2 -118 -5 -255 -6 -305 -2 -49 -3 -140 -4 -201 -1
-74 -5 -116 -14 -128 -13 -17 -39 -10 -454 129 l-441 148 -26 131 c-13 72 -22
134 -18 137 4 4 162 57 352 119 190 61 397 129 460 150 63 22 124 38 135 37
19 -2 20 -8 16 -217z m-1031 -113 c0 -1 9 -49 20 -106 11 -58 18 -106 17 -108
-2 -1 -80 23 -175 54 -95 31 -169 60 -165 64 14 12 303 105 303 96z m-2022
-28 c78 -1 122 -5 122 -12 0 -11 -149 -337 -160 -350 -6 -7 -220 351 -220 368
0 3 30 3 68 1 37 -3 122 -6 190 -7z m977 -35 c501 -9 456 -6 465 -29 7 -18
-25 -40 -284 -193 -671 -398 -831 -494 -836 -502 -8 -13 -34 13 -188 177 -147
158 -139 134 -87 248 15 33 50 107 77 165 27 58 54 115 59 128 l9 23 197 -5
c109 -3 374 -8 588 -12z m2941 -59 c31 -13 31 -14 24 -61 -11 -67 -18 -126
-26 -209 -3 -38 -8 -73 -10 -76 -1 -3 -4 -33 -5 -67 -1 -34 -5 -62 -9 -62 -4
0 -12 21 -18 48 -89 375 -112 472 -112 481 0 8 34 -3 156 -54z m-121 -378 c37
-153 65 -280 63 -281 -9 -7 -812 -325 -814 -323 -3 3 86 142 103 162 5 6 12
17 15 25 4 8 49 80 101 160 53 80 171 263 264 407 l168 262 16 -67 c9 -37 47
-192 84 -345z m-202 362 c-10 -17 -25 -38 -34 -47 -8 -9 -18 -24 -22 -32 -4
-8 -16 -28 -27 -45 -11 -16 -25 -40 -31 -52 -7 -13 -16 -23 -21 -23 -4 0 -8
-5 -8 -10 0 -6 -34 -63 -76 -128 -42 -64 -103 -157 -135 -207 -32 -49 -62 -94
-66 -100 -5 -5 -31 -47 -58 -92 -28 -46 -53 -83 -57 -83 -5 0 -8 -4 -8 -10 0
-5 -24 -47 -54 -92 -58 -90 -64 -95 -211 -154 -105 -42 -324 -124 -331 -124
-3 0 358 421 401 466 5 6 29 33 52 60 23 27 51 60 63 74 12 14 38 44 57 67 19
23 38 42 41 42 41 -6 82 27 82 65 0 18 41 63 163 179 211 202 291 276 295 277
2 0 -5 -14 -15 -31z m-1718 -87 l200 -68 61 -329 c34 -182 78 -417 98 -524 20
-107 34 -196 33 -198 -6 -5 -442 110 -837 222 -98 28 -115 35 -112 51 10 52
203 832 212 851 6 14 15 20 24 17 17 -6 86 24 86 37 0 17 37 8 235 -59z
m-2041 -94 c41 -70 71 -129 68 -132 -3 -3 -41 -6 -84 -6 l-78 0 -1 60 c-1 92
-1 188 1 213 1 27 -4 34 94 -135z m1631 120 c-3 -13 -36 -149 -74 -303 -38
-154 -83 -339 -101 -411 -18 -72 -36 -137 -40 -144 -7 -11 -33 -7 -137 23
-241 70 -707 197 -720 197 -7 0 -13 4 -13 8 0 4 107 72 238 150 130 78 372
222 537 321 165 98 303 180 308 180 4 1 5 -9 2 -21z m2564 -258 c30 -187 34
-215 46 -305 3 -27 8 -66 11 -85 2 -19 7 -84 10 -145 7 -127 12 -129 -85 33
-37 63 -61 114 -61 132 0 16 -4 31 -9 35 -6 3 -8 15 -5 28 6 31 23 185 40 352
4 39 8 77 10 85 1 8 3 26 3 39 2 48 10 13 40 -169z m-1040 -141 c10 -4 0 -21
-34 -59 -26 -30 -59 -68 -74 -85 -14 -16 -82 -95 -151 -175 -69 -80 -139 -161
-156 -180 -17 -19 -68 -78 -113 -130 -56 -65 -90 -96 -106 -97 -26 -2 -16 -45
-105 437 -27 146 -61 326 -75 400 -13 74 -25 143 -25 152 0 13 76 -9 413 -121
226 -76 418 -140 426 -142z m-3011 -25 c18 -58 31 -108 28 -111 -11 -11 -192
113 -254 174 -29 28 -7 38 94 40 l99 2 33 -105z m242 -175 c0 -8 -111 8 -120
18 -4 4 -17 40 -30 78 -12 39 -24 76 -26 84 -3 8 36 -28 85 -80 50 -52 90 -97
91 -100z m37 -73 c1 -1 -3 -35 -10 -76 l-13 -75 -37 67 c-21 37 -42 70 -47 73
-25 16 -5 23 48 18 31 -3 58 -6 59 -7z m3610 -23 c1 -36 8 -136 18 -228 2 -22
7 -74 10 -115 3 -41 8 -97 10 -125 16 -173 17 -162 -13 -174 -15 -6 -38 -9
-52 -7 -14 2 -52 8 -85 11 -33 4 -69 9 -80 11 -11 1 -92 12 -180 24 -88 11
-173 23 -190 25 -16 2 -68 9 -115 15 -137 18 -153 20 -185 25 -60 9 -130 18
-142 18 -7 0 -13 4 -13 9 0 12 90 148 120 180 19 21 132 71 445 197 231 94
427 170 436 170 12 1 16 -9 16 -36z m-3938 -16 c-48 -44 -55 -46 -154 -38 -22
2 160 79 190 80 5 1 -11 -18 -36 -42z m191 -39 c0 -4 -18 -8 -41 -8 -35 0 -40
2 -34 18 4 9 10 28 13 41 l5 25 29 -34 c15 -19 28 -38 28 -42z m296 47 c27 -8
74 -21 104 -29 30 -8 159 -43 285 -79 127 -35 269 -75 318 -88 48 -13 87 -26
87 -29 0 -3 -123 -40 -273 -84 -149 -43 -292 -85 -317 -92 -93 -28 -86 -33
-139 106 -108 280 -119 310 -117 310 1 0 25 -7 52 -15z m-42 -195 c31 -80 56
-148 56 -152 0 -4 -24 19 -52 50 -29 31 -61 64 -70 73 -10 9 -18 24 -18 34 0
23 23 146 26 142 1 -1 28 -67 58 -147z m3620 43 c57 -93 64 -120 46 -168 -5
-14 -12 -36 -14 -48 -28 -131 -51 -202 -52 -159 -1 15 -4 60 -19 227 -2 17 -6
66 -9 110 -3 44 -9 94 -12 110 -8 39 -6 37 60 -72z m-4196 33 c1 -2 -23 -26
-55 -52 -32 -27 -78 -68 -103 -91 -24 -23 -46 -41 -47 -39 -8 8 94 174 112
182 18 9 84 8 93 0z m139 -9 c-36 -95 -93 -225 -103 -237 -7 -9 -23 -16 -34
-17 -26 -2 -50 -21 -50 -39 0 -7 -17 -18 -37 -23 -77 -20 -227 -51 -231 -47
-5 6 19 28 172 159 11 10 37 32 57 50 153 137 243 198 226 154z m196 4 c20 -1
37 -5 37 -10 0 -11 -221 -164 -226 -158 -6 6 59 161 70 169 6 4 27 5 46 3 19
-2 52 -4 73 -4z m-580 -108 c-15 -27 -44 -76 -65 -111 -21 -34 -38 -66 -38
-71 0 -5 -23 -30 -51 -55 -49 -44 -51 -45 -75 -30 -23 16 -24 17 -6 47 19 33
242 267 255 267 4 0 -5 -21 -20 -47z m657 -20 c0 -12 5 -25 10 -28 6 -3 10
-16 10 -28 0 -20 -12 -25 -151 -55 -84 -18 -153 -31 -156 -29 -2 2 59 45 134
95 140 93 152 97 153 45z m1245 -38 c11 -2 124 -33 250 -68 127 -36 300 -84
385 -108 85 -23 158 -45 162 -48 4 -3 -108 -52 -249 -109 l-257 -102 -227 232
c-125 128 -225 236 -223 240 2 3 35 -2 72 -13 37 -11 76 -21 87 -24z m-239
-22 c-3 -10 -35 -142 -71 -293 -54 -222 -71 -278 -88 -292 -64 -50 -77 -59
-85 -54 -5 3 -23 8 -41 11 -42 7 -194 42 -247 56 -22 6 -41 16 -41 22 0 7 -22
92 -47 190 -26 99 -46 180 -44 182 2 1 89 28 193 59 105 30 251 73 325 95 159
47 153 46 146 24z m263 -224 c108 -111 197 -204 199 -209 1 -4 -106 -51 -238
-104 -338 -135 -327 -146 -234 234 38 154 71 280 73 280 2 0 92 -90 200 -201z
m1345 112 c-53 -81 -47 -79 -188 -58 l-80 12 155 61 c85 34 155 61 157 59 1
-1 -19 -34 -44 -74z m-2371 -48 c17 -20 18 -24 4 -43 -15 -21 -16 -21 -43 27
-15 26 -35 62 -46 79 -10 17 -18 35 -18 39 0 7 66 -58 103 -102z m3643 -45
c-7 -150 -8 -172 -21 -292 l-7 -59 -34 63 c-40 71 -40 59 12 255 20 77 39 150
41 163 12 53 15 12 9 -130z m-4066 78 c0 -2 -24 -22 -52 -44 -56 -42 -75 -59
-146 -126 l-43 -41 35 84 c19 46 37 85 38 86 2 2 39 12 83 23 44 11 81 20 83
21 1 1 2 -1 2 -3z m335 -93 l28 -53 -27 -39 c-15 -22 -37 -48 -48 -58 -21 -18
-21 -18 -14 2 4 11 10 64 13 118 3 54 9 94 13 90 4 -4 20 -32 35 -60z m-671
-15 c-16 -32 -102 -158 -114 -168 -3 -3 -24 -34 -45 -70 -21 -36 -43 -66 -47
-68 -4 -2 -8 -8 -8 -13 0 -4 -21 -43 -46 -86 -26 -43 -58 -98 -72 -123 -13
-25 -28 -49 -32 -53 -7 -8 -60 133 -60 160 0 6 10 33 22 60 11 26 22 53 23 58
2 6 14 36 29 67 14 31 26 59 26 61 0 3 12 31 27 63 15 33 28 62 29 67 1 4 2
11 3 15 0 4 34 14 74 21 39 7 95 19 122 26 28 8 58 14 68 14 17 1 17 -1 1 -31z
m2856 12 c47 -6 106 -13 133 -17 26 -3 47 -8 47 -11 0 -6 -151 -245 -159 -252
-3 -3 -12 -17 -20 -32 -8 -16 -18 -28 -23 -28 -4 0 -8 -5 -8 -11 0 -10 -107
-180 -129 -206 -6 -7 -11 -17 -11 -23 0 -5 -4 -10 -10 -10 -5 0 -10 -5 -10
-10 0 -13 -43 -80 -51 -80 -4 0 -6 17 -4 38 5 68 16 186 20 222 6 46 12 109
20 190 3 36 8 88 12 115 4 28 7 61 7 75 1 18 10 29 36 42 19 9 42 15 50 13 8
-2 53 -9 100 -15z m-3260 -26 c0 -8 -4 -14 -8 -14 -5 0 -23 -14 -40 -31 -18
-17 -32 -28 -32 -25 0 9 30 68 42 83 12 15 38 6 38 -13z m1228 -65 c7 -29 11
-54 9 -55 -8 -8 -48 78 -43 91 10 28 23 15 34 -36z m1777 -6 c-3 -32 -8 -78
-10 -103 -15 -139 -24 -220 -30 -285 -15 -156 -18 -181 -24 -188 -8 -8 -423
414 -423 430 0 7 461 199 485 202 4 1 5 -25 2 -56z m678 42 c58 -8 127 -17
154 -20 26 -3 73 -10 103 -15 30 -5 82 -11 115 -15 33 -3 71 -8 85 -10 75 -12
262 -36 305 -41 28 -2 61 -7 75 -10 28 -7 40 -1 -202 -88 -71 -25 -183 -66
-250 -90 -68 -24 -238 -86 -378 -136 -140 -51 -328 -118 -418 -151 -90 -32
-168 -59 -173 -59 -10 0 189 313 202 318 5 2 9 8 9 14 0 6 28 54 63 107 35 53
76 117 92 143 46 73 56 76 218 53z m-3637 -50 c-9 -14 -14 -25 -11 -25 3 0 -2
-15 -12 -32 -9 -18 -18 -37 -19 -43 -1 -5 -15 -39 -31 -74 l-29 -65 -23 73
c-15 47 -19 76 -13 80 16 10 113 94 131 114 22 24 27 3 7 -28z m359 -71 c-25
-59 -45 -109 -45 -112 0 -2 -7 -2 -15 2 -17 6 -55 -26 -55 -47 0 -7 -16 -29
-36 -48 l-36 -34 49 81 c27 44 72 112 99 150 28 38 56 79 63 92 28 52 17 14
-24 -84z m758 24 c9 -18 31 -60 50 -94 l35 -60 -109 25 c-60 14 -109 27 -109
30 0 10 102 131 109 131 4 0 15 -15 24 -32z m3452 -145 c-91 -388 -148 -623
-156 -643 -10 -24 -79 -80 -98 -80 -5 0 -11 -4 -13 -9 -4 -11 -288 -204 -288
-196 0 7 41 83 158 295 41 74 87 158 102 185 274 502 326 582 295 448z m-98
40 c-2 -5 -37 -69 -78 -143 -40 -74 -76 -137 -79 -140 -3 -3 -13 -21 -22 -40
-9 -19 -55 -104 -102 -189 -47 -85 -86 -158 -86 -163 0 -4 -4 -8 -10 -8 -5 0
-10 -5 -10 -11 0 -11 -108 -212 -144 -266 l-21 -32 -70 38 c-38 20 -196 106
-350 191 -154 85 -314 172 -355 195 -41 22 -75 47 -75 55 0 10 69 40 215 92
118 43 339 122 490 177 151 54 367 133 480 174 217 79 223 81 217 70z m-1747
-338 l129 -131 -12 -39 c-12 -41 -23 -54 -67 -77 -14 -7 -27 -15 -30 -18 -3
-3 -52 -37 -110 -75 -58 -38 -184 -121 -280 -184 -96 -64 -179 -118 -185 -121
-5 -3 -39 -25 -75 -48 l-65 -43 -10 33 c-5 18 -57 186 -115 373 l-107 339 33
31 c18 17 35 42 39 56 6 23 36 37 268 130 l262 105 98 -100 c54 -56 156 -160
227 -231z m1984 150 c4 -19 -18 -67 -78 -178 -46 -84 -93 -170 -105 -192 -12
-22 -19 -31 -17 -20 3 11 28 119 56 240 28 121 56 238 61 259 l11 39 34 -61
c18 -34 36 -73 38 -87z m-4866 28 c0 -41 -33 -190 -44 -202 -4 -5 6 189 11
224 2 11 4 36 5 55 l1 35 14 -32 c7 -17 13 -53 13 -80z m1230 74 l94 -22 -93
-85 c-51 -47 -98 -91 -106 -98 -7 -7 -13 -10 -14 -5 0 4 -2 44 -5 88 -2 44 -6
97 -8 117 -3 34 -1 37 18 33 11 -3 63 -15 114 -28z m-191 -177 c-2 -105 -3
-111 -28 -133 -14 -12 -65 -58 -114 -102 -82 -75 -115 -102 -115 -92 0 3 15
43 34 90 48 117 110 239 164 321 41 62 46 67 53 47 5 -12 7 -71 6 -131z m533
89 c85 -19 224 -49 226 -49 0 0 6 -17 12 -39 13 -42 17 -31 -114 -310 -24 -51
-44 -95 -44 -96 0 -12 -121 -255 -126 -255 -4 0 -94 28 -200 62 l-193 61 -3
81 c-3 78 8 136 24 136 4 0 8 6 8 13 0 7 8 22 18 33 9 10 73 103 141 207 91
137 128 186 140 183 9 -3 59 -15 111 -27z m-1174 -21 c-23 -37 -106 -245 -106
-267 0 -12 -9 -29 -20 -39 -11 -9 -26 -35 -32 -57 l-11 -40 -28 84 c-17 49
-25 89 -21 98 9 15 223 243 229 243 2 0 -3 -10 -11 -22z m918 -20 c-55 -96
-189 -287 -194 -278 -6 9 -6 65 -1 103 1 10 35 43 130 130 65 58 78 67 65 45z
m-1239 -131 c19 -55 15 -64 -49 -127 l-46 -44 20 69 c11 39 25 94 32 123 12
59 17 56 43 -21z m1815 8 c0 -2 48 -157 106 -342 58 -186 110 -350 114 -365 5
-17 4 -30 -3 -37 -12 -9 -156 29 -419 110 l-97 29 19 38 c10 20 33 69 51 107
17 39 61 133 96 210 36 77 76 166 90 198 14 31 30 57 34 57 5 0 9 -2 9 -5z
m2920 -237 c-36 -178 -69 -318 -79 -336 -4 -8 -20 25 -39 78 l-32 91 36 72
c69 136 136 258 141 253 3 -2 -9 -74 -27 -158z m-3759 46 c3 -81 3 -81 -40
-148 -24 -36 -46 -66 -48 -66 -3 0 -43 12 -90 26 -71 23 -86 25 -94 13 -5 -8
-9 -9 -9 -4 0 6 32 39 72 75 39 36 101 93 137 127 36 33 67 60 68 59 1 0 3
-38 4 -82z m-925 -101 c29 -155 31 -182 17 -208 -6 -11 -11 -22 -10 -25 1 -12
-37 -116 -47 -129 -6 -8 -10 -16 -8 -18 5 -7 2 -36 -4 -31 -3 3 -32 93 -64
199 -47 154 -57 196 -47 209 26 34 131 139 135 135 2 -2 15 -62 28 -132z
m3248 -57 c163 -84 611 -326 655 -353 l24 -15 -26 -22 c-14 -11 -71 -52 -126
-91 -146 -101 -233 -163 -256 -181 -11 -9 -30 -21 -42 -27 -13 -5 -23 -14 -23
-19 0 -4 -4 -8 -10 -8 -5 0 -18 -7 -27 -15 -10 -8 -72 -53 -138 -99 -101 -71
-121 -82 -127 -68 -4 9 -41 221 -83 470 -77 462 -79 482 -40 482 7 0 18 7 25
15 7 8 17 15 23 15 6 0 83 -38 171 -84z m-339 54 c14 -15 33 -111 81 -392 116
-680 106 -610 86 -630 -43 -42 -275 -198 -295 -198 -24 0 -110 86 -611 613
-50 53 -83 104 -74 112 6 6 744 492 763 503 27 15 29 15 50 -8z m-1965 -119
c0 -24 -3 -28 -20 -24 -23 6 -24 8 -10 34 16 28 30 23 30 -10z m-233 -42 c36
-10 68 -21 71 -23 5 -6 -108 -179 -120 -184 -4 -2 -8 -10 -8 -18 0 -8 -4 -14
-8 -14 -7 0 -43 218 -42 258 0 9 7 11 21 7 12 -4 50 -15 86 -26z m-881 -86
c55 -183 72 -244 64 -241 -5 2 -32 25 -60 52 l-52 49 6 61 c3 34 7 85 8 114 0
28 2 52 4 52 2 0 15 -39 30 -87z m4594 82 c0 -2 -21 -69 -46 -147 -25 -79 -50
-159 -56 -178 -6 -19 -19 -49 -29 -66 -11 -17 -19 -45 -19 -63 0 -17 -4 -31
-10 -31 -5 0 -9 -4 -7 -9 1 -5 -27 -68 -63 -140 -59 -120 -67 -131 -90 -129
-23 3 -26 10 -47 113 -13 61 -30 165 -39 233 -20 144 -31 123 116 222 52 36
97 67 100 70 17 18 80 60 89 60 6 0 11 4 11 8 0 5 16 17 35 28 19 10 35 22 35
26 0 5 5 8 10 8 6 0 10 -2 10 -5z m-4304 -92 c3 -63 0 -57 -14 25 -7 37 -6 50
1 43 6 -6 12 -36 13 -68z m4431 -123 c-5 -8 -47 -45 -92 -82 l-83 -68 32 103
c18 56 43 135 56 175 l24 73 36 -93 c25 -65 33 -97 27 -108z m-3616 152 c7 -7
12 -33 24 -142 3 -30 8 -71 10 -90 2 -19 9 -82 15 -140 13 -123 19 -180 25
-235 2 -22 7 -67 10 -100 4 -33 9 -73 11 -89 4 -21 1 -27 -9 -23 -8 3 -61 19
-118 37 -57 17 -115 36 -129 41 -50 20 -60 49 -91 260 l-29 201 22 37 c41 67
122 186 130 189 5 2 8 10 8 17 0 26 52 57 85 51 16 -4 33 -10 36 -14z m259
-72 c96 -28 176 -52 178 -54 4 -5 -267 -596 -279 -610 -5 -6 -10 8 -10 32 -1
23 -2 45 -3 50 -1 4 -6 43 -10 87 -5 44 -10 89 -11 100 -2 11 -6 47 -9 80 -8
81 -17 165 -21 190 -8 53 -17 175 -13 175 3 0 83 -23 178 -50z m-621 -168 c-5
-13 -7 -27 -5 -31 3 -4 -8 -27 -25 -52 -16 -24 -29 -39 -29 -34 0 8 38 270 41
285 1 3 7 -29 14 -70 7 -46 9 -84 4 -98z m-484 -37 c20 -122 24 -171 19 -255
-3 -58 -8 -107 -10 -109 -9 -9 -18 15 -69 181 l-52 172 23 71 c13 38 27 77 31
85 7 17 10 25 13 43 4 26 20 -43 45 -188z m1818 -1 c15 -4 27 -10 27 -14 0 -4
-30 -27 -67 -51 -38 -24 -138 -89 -223 -144 -187 -122 -495 -315 -503 -315 -5
0 57 140 162 365 24 50 61 131 84 180 22 50 45 95 49 101 6 8 70 -6 226 -52
119 -36 229 -67 245 -70z m2559 -144 c-43 -93 -79 -170 -82 -170 -3 0 -6 47
-7 104 l-3 104 81 66 c44 36 82 66 84 66 2 0 -31 -76 -73 -170z m-4612 111
c22 -22 40 -47 40 -56 0 -26 -32 -157 -37 -152 -3 4 -52 229 -53 245 0 9 16
-3 50 -37z m4093 -31 c3 -19 17 -96 32 -170 39 -206 39 -192 10 -226 -22 -26
-30 -44 -26 -66 0 -5 -1 -8 -4 -8 -3 0 -117 -18 -253 -40 -256 -42 -271 -45
-337 -55 -22 -3 -47 -7 -55 -10 -8 -2 -37 -6 -64 -10 -27 -3 -53 -8 -58 -11
-4 -3 -8 -2 -8 3 -1 4 -3 33 -6 64 -7 64 -6 65 82 124 32 22 64 45 70 50 6 6
37 28 70 50 32 22 61 42 64 46 3 3 25 19 50 35 46 31 317 221 357 250 13 9 31
22 40 30 21 14 27 4 36 -56z m-1940 -491 l2 -444 -295 -107 c-162 -59 -298
-107 -302 -107 -3 -1 -30 43 -59 97 -28 53 -64 120 -79 147 -15 28 -56 104
-90 170 -35 66 -67 124 -71 129 -12 14 -11 36 1 36 6 0 16 5 23 11 11 10 261
175 666 441 159 105 163 107 182 89 19 -18 20 -36 22 -462z m-1378 276 c4 -33
10 -64 13 -70 6 -10 -49 36 -95 79 -35 32 -30 77 14 138 l38 52 11 -70 c7 -38
15 -96 19 -129z m-609 -93 l24 -84 -53 -98 c-28 -54 -53 -97 -54 -96 -10 10
-43 220 -35 225 5 3 7 17 5 31 -2 14 -4 30 -4 35 -1 6 9 57 22 113 l24 104 23
-74 c13 -40 34 -110 48 -156z m2318 5 c77 -81 189 -198 249 -260 59 -61 107
-115 107 -118 0 -8 -2 -9 -170 -69 -74 -26 -142 -51 -151 -55 -19 -7 -16 -14
-109 285 -29 91 -70 221 -91 289 -21 68 -39 128 -39 135 0 6 14 -5 31 -24 18
-19 95 -102 173 -183z m-2544 98 c27 -131 27 -152 -4 -274 -14 -57 -26 -113
-26 -125 -1 -20 -1 -20 -12 -2 -9 17 -7 162 7 346 2 19 3 64 4 99 1 35 3 62 6
59 3 -2 14 -49 25 -103z m2390 -270 c56 -181 103 -336 104 -344 1 -13 -191
-93 -205 -85 -3 2 -7 160 -8 351 -1 191 -3 365 -4 385 -1 21 0 34 4 30 3 -4
52 -155 109 -337z m2130 245 l0 -100 -62 -28 c-35 -16 -65 -27 -68 -24 -3 3 1
7 8 9 6 3 10 8 7 13 -3 5 2 15 10 24 9 8 15 18 14 21 -2 7 83 185 88 185 2 0
3 -45 3 -100z m-3687 -130 c19 0 27 -63 28 -203 1 -84 0 -161 0 -172 -5 -59
-112 234 -126 344 -1 14 -6 50 -10 79 l-7 54 54 -51 c29 -28 56 -51 61 -51z
m3657 -147 c-39 -73 -157 -237 -227 -316 -18 -20 -33 -36 -33 -35 3 34 72 274
79 276 38 13 77 52 87 87 9 35 17 42 70 65 75 34 79 24 24 -77z m-3374 -2 c84
-26 103 -36 113 -58 15 -32 18 -83 26 -357 6 -210 6 -219 -14 -237 -11 -10
-24 -27 -30 -36 -9 -16 -14 -14 -46 22 -125 139 -234 290 -234 321 1 11 0 102
-1 204 -1 102 -1 188 -1 192 1 7 9 5 187 -51z m-840 -38 c-7 -74 -11 -127 -22
-278 -4 -55 -8 -111 -9 -125 -2 -14 -4 -43 -5 -65 -1 -28 -12 7 -35 120 -19
91 -31 171 -27 185 3 14 5 31 4 38 -3 12 87 192 96 192 2 0 1 -30 -2 -67z
m-198 -49 l18 -89 -40 -79 -41 -79 -10 44 c-9 37 -6 62 19 170 17 70 32 127
33 125 2 -1 11 -43 21 -92z m3239 74 c0 -7 3 -29 6 -49 l7 -35 -95 -15 c-52
-9 -92 -12 -88 -8 10 8 165 119 168 119 1 0 2 -6 2 -12z m513 -338 c-184 -182
-336 -327 -337 -323 -13 41 -88 523 -82 524 5 1 12 2 17 3 10 3 92 17 127 22
17 2 41 6 55 9 14 3 39 7 55 9 17 3 98 16 180 30 83 14 170 28 195 31 25 4 61
10 80 15 19 4 37 8 40 9 3 1 -146 -148 -330 -329z m374 158 c-49 -191 -58
-204 -163 -253 -47 -22 -147 -68 -221 -103 -74 -35 -146 -68 -160 -74 -14 -5
105 119 265 276 159 158 295 286 301 286 9 0 2 -41 -22 -132z m-875 23 c9 -6
30 -103 61 -285 l46 -276 -73 -30 c-40 -17 -85 -33 -101 -36 -27 -5 -29 -3
-51 63 -13 37 -58 154 -99 258 -41 105 -80 207 -88 227 l-13 37 47 7 c26 4 92
15 147 24 55 10 102 19 105 19 3 0 11 -3 19 -8z m-1895 -274 c65 -121 116
-220 114 -221 -2 -2 -23 -10 -48 -18 -25 -9 -53 -19 -62 -23 -12 -5 -20 -1
-25 11 -8 22 -44 58 -64 62 -24 6 -27 21 -28 136 -1 61 -4 149 -7 196 -4 47
-4 83 -1 80 2 -3 57 -103 121 -223z m1542 129 c9 -28 28 -73 41 -101 26 -51
84 -197 108 -270 7 -22 22 -64 34 -93 l21 -53 -37 -16 c-154 -64 -359 -140
-365 -135 -7 8 -197 616 -193 620 1 1 80 31 176 66 196 72 186 73 215 -18z
m-2885 -138 c0 -57 2 -111 4 -120 2 -10 0 -20 -5 -23 -4 -3 -17 34 -29 82 -21
84 -22 89 -5 125 9 21 21 38 26 38 4 0 8 -46 9 -102z m-121 44 c0 -10 -7 -27
-15 -38 -13 -17 -13 -15 -3 19 12 41 18 47 18 19z m2647 -286 c51 -164 90
-303 86 -309 -5 -8 -401 -2 -410 6 -4 4 -6 527 -2 530 12 10 206 76 218 74 10
-1 45 -100 108 -301z m-393 -48 l4 -246 -131 35 c-256 68 -339 92 -361 107
-23 14 -95 141 -86 149 7 6 564 205 567 202 2 -1 5 -112 7 -247z m1814 214
c-19 -26 -133 -129 -208 -188 -111 -88 -430 -287 -430 -268 0 3 14 41 32 86
21 52 38 83 50 86 10 2 21 15 24 27 4 18 51 44 236 130 126 59 246 116 266
126 46 23 46 23 30 1z m-4023 -66 c17 -70 17 -74 -1 -101 -10 -15 -19 -46 -21
-69 -2 -22 -9 -59 -15 -81 l-11 -40 -28 85 c-16 47 -28 94 -29 104 0 26 72
176 85 176 1 0 10 -33 20 -74z m195 -259 c0 -65 -1 -121 -4 -125 -2 -4 -7 -61
-11 -127 -4 -66 -9 -122 -11 -124 -2 -2 -4 25 -5 60 -1 35 -2 80 -3 99 -2 19
-6 141 -10 270 -4 129 -8 237 -8 240 -3 50 9 22 28 -65 18 -82 24 -140 24
-228z m-109 76 c0 -43 2 -94 3 -113 2 -19 6 -141 10 -270 l6 -235 -45 145
c-39 124 -45 154 -40 205 2 33 7 92 10 130 5 64 13 124 21 150 5 14 12 49 13
58 1 4 6 7 11 7 6 0 10 -33 11 -77z m1515 -5 c16 -32 21 -49 12 -46 -7 3 -55
16 -105 29 l-93 23 73 27 c39 15 75 25 80 22 4 -2 19 -27 33 -55z m1774 -47
c0 -8 -15 -47 -53 -134 -7 -15 -16 -26 -21 -24 -4 1 -18 28 -31 59 l-23 57 31
14 c73 32 82 36 90 36 4 1 7 -3 7 -8z m-1855 -42 c77 -22 153 -43 168 -46 19
-4 73 -49 160 -134 73 -71 129 -129 126 -129 -3 0 -38 11 -79 25 -152 52 -357
163 -497 270 -32 24 -39 35 -30 44 6 6 11 11 12 11 0 0 63 -18 140 -41z m1675
-41 c0 -5 11 -32 25 -60 28 -56 31 -69 13 -63 -7 2 -89 6 -182 9 -92 3 -170 7
-173 9 -2 3 31 17 74 33 43 16 112 43 153 60 74 31 90 33 90 12z m-3290 -46
c10 -42 8 -60 -11 -133 -12 -46 -24 -86 -26 -89 -3 -3 -3 36 1 85 3 50 6 111
6 138 0 61 15 60 30 -1z m2105 -42 c83 -22 158 -43 168 -46 15 -5 10 -15 -34
-65 -28 -32 -57 -59 -65 -59 -8 0 -45 29 -82 64 -37 35 -87 82 -112 105 -25
23 -40 41 -35 41 6 0 78 -18 160 -40z m536 -72 c146 -3 144 0 55 -87 l-55 -55
-36 20 c-20 10 -67 45 -106 76 l-69 57 42 -4 c24 -2 100 -5 169 -7z m527 -19
c45 -1 82 -2 82 -4 0 -1 -33 -14 -72 -28 -123 -44 -239 -73 -373 -92 -22 -4
-51 -8 -64 -10 -23 -4 -22 -2 11 33 62 66 88 97 88 105 0 4 55 5 123 3 67 -3
159 -6 205 -7z m-713 -74 c44 -36 84 -65 88 -65 5 0 6 -4 3 -9 -8 -13 -210 -4
-268 11 l-47 13 54 58 c29 31 62 57 72 57 10 0 54 -29 98 -65z m-2420 -72 c-4
-49 -8 -104 -10 -123 -2 -19 -6 -75 -10 -125 -4 -49 -8 -91 -10 -93 -4 -4 -35
137 -35 162 0 12 11 62 26 111 31 112 32 116 33 138 1 9 4 17 7 17 3 0 3 -39
-1 -87z m130 -267 l57 -188 -53 -120 -53 -120 -42 84 c-37 72 -41 86 -30 103
13 21 21 76 32 230 4 50 8 101 10 115 1 14 3 45 4 70 1 63 9 45 75 -174z
m-210 -191 c1 -67 -22 -192 -33 -180 -5 5 -3 93 3 145 2 14 4 52 4 85 1 51 3
57 13 40 7 -11 13 -51 13 -90z m118 -323 c-3 -10 -14 -35 -24 -57 -71 -163
-68 -158 -84 -145 -8 7 -15 21 -15 31 0 10 -4 21 -10 24 -16 10 -12 49 14 143
14 48 30 107 36 131 l11 43 39 -77 c22 -43 36 -84 33 -93z m141 76 c-3 -46 -7
-94 -9 -108 -1 -14 -3 -32 -4 -40 -2 -21 -41 60 -41 85 0 17 50 145 57 145 1
0 0 -37 -3 -82z m-297 30 c-3 -8 -6 -5 -6 6 -1 11 2 17 5 13 3 -3 4 -12 1 -19z
m226 -220 c47 -89 46 -93 -36 -182 l-73 -79 -13 32 c-15 35 -15 37 51 179 21
46 38 88 38 94 0 16 5 10 33 -44z m-233 -134 c0 -8 6 -27 13 -42 13 -24 11
-32 -15 -82 l-29 -55 5 40 c3 22 5 68 6 103 0 40 4 61 10 57 6 -3 10 -13 10
-21z m274 -91 c-2 -16 -6 -73 -10 -128 -4 -55 -8 -113 -10 -130 -1 -16 -2 -41
-3 -55 -1 -25 -2 -25 -16 5 -48 97 -83 201 -73 218 10 20 100 115 109 116 3 1
5 -11 3 -26z m-214 -93 c-5 -9 -16 -22 -24 -29 -13 -11 -13 -6 2 27 10 23 20
36 24 29 4 -6 3 -18 -2 -27z m122 -286 c-4 -6 -31 -37 -60 -68 -50 -55 -52
-56 -61 -34 -5 13 -23 58 -40 100 -19 46 -30 88 -27 103 3 14 28 48 57 76 l52
50 43 -108 c23 -59 40 -113 36 -119z m-197 -84 c37 -92 37 -95 0 -137 l-35
-38 0 124 c0 68 2 122 4 120 2 -2 16 -33 31 -69z m250 -44 c-3 -23 -9 -112
-12 -199 l-6 -158 -58 141 c-32 77 -56 147 -52 155 3 8 28 40 56 70 40 44 53
53 64 44 9 -8 12 -24 8 -53z m-116 -286 c35 -88 61 -163 58 -167 -9 -8 -111
62 -155 107 -19 19 -43 55 -53 79 l-19 44 42 47 c24 27 48 48 53 49 6 0 39
-71 74 -159z"/>
</g>
</svg>
